<svg width="1920" height="590" viewBox="0 0 1920 590" fill="none" xmlns="http://www.w3.org/2000/svg">
<path id="divider1" d="M1733.91 86.704C1785.62 63.5688 1841.46 39.5554 1912.5 17.4942V426.75C1835.45 320.099 1689.63 272.823 1533.04 279.805C1366.16 287.247 1184.88 356.274 1056.22 483.576C932.079 606.417 772.365 593.892 589.642 557.124C558.966 550.951 527.663 544.096 495.828 537.124C341.796 503.39 175.336 466.935 7.5 491.949V97.8098C56.6606 41.8706 109.94 16.1244 170.599 9.36792C232.47 2.47653 302.471 15.2807 384.405 37.2812C421.79 47.3195 461.565 59.2513 504.002 71.9815C646.972 114.869 820.145 166.817 1033.83 185.941C1310.68 210.718 1457.02 190.967 1572.56 153.083C1623.27 136.456 1667.94 116.362 1714.73 95.3123C1721.08 92.4583 1727.46 89.5868 1733.91 86.704Z" fill="currentColor" stroke="currentColor" stroke-width="15"/>
</svg>
