<svg width="528" height="64" viewBox="0 0 528 64" stroke="none" xmlns="http://www.w3.org/2000/svg">
<path fill="transparent" stoke-width="18" class="hero" d="M42.1137 19.75H32.1591C31.9773 18.4621 31.6061 17.3181 31.0455 16.3181C30.4849 15.303 29.7652 14.4394 28.8864 13.7272C28.0076 13.0151 26.9924 12.4697 25.8409 12.0909C24.7046 11.7121 23.4697 11.5227 22.1364 11.5227C19.7273 11.5227 17.6288 12.1212 15.8409 13.3181C14.0531 14.5 12.6667 16.2272 11.6818 18.5C10.697 20.7575 10.2046 23.5 10.2046 26.7272C10.2046 30.0454 10.697 32.8333 11.6818 35.0909C12.6818 37.3484 14.0758 39.053 15.8637 40.2045C17.6515 41.356 19.7197 41.9318 22.0682 41.9318C23.3864 41.9318 24.6061 41.7575 25.7273 41.409C26.8637 41.0606 27.8712 40.553 28.75 39.8863C29.6288 39.2045 30.3561 38.3787 30.9318 37.409C31.5228 36.4394 31.9318 35.3333 32.1591 34.0909L42.1137 34.1363C41.8561 36.2727 41.2121 38.3333 40.1818 40.3181C39.1667 42.2878 37.7955 44.053 36.0682 45.6136C34.3561 47.159 32.3106 48.3863 29.9318 49.2954C27.5682 50.1894 24.894 50.6363 21.9091 50.6363C17.7576 50.6363 14.0455 49.6969 10.7727 47.8181C7.51517 45.9394 4.93942 43.2197 3.04548 39.659C1.16669 36.0984 0.227295 31.7878 0.227295 26.7272C0.227295 21.6515 1.18184 17.3333 3.09093 13.7727C5.00002 10.2121 7.59093 7.49996 10.8637 5.63632C14.1364 3.75753 17.8182 2.81814 21.9091 2.81814C24.6061 2.81814 27.1061 3.19693 29.4091 3.9545C31.7273 4.71208 33.7803 5.81814 35.5682 7.27268C37.3561 8.71208 38.8106 10.4772 39.9318 12.5681C41.0682 14.659 41.7955 17.053 42.1137 19.75Z" stroke="currentColor"/>
<path fill="transparent" stoke-width="18" class="hero" d="M58.6705 29.8181V50H48.9887V3.4545H58.3978V21.25H58.8068C59.5947 19.1894 60.8674 17.5757 62.625 16.409C64.3826 15.2272 66.5871 14.6363 69.2387 14.6363C71.6629 14.6363 73.7765 15.1666 75.5796 16.2272C77.3977 17.2727 78.8068 18.7803 79.8068 20.75C80.822 22.7045 81.322 25.0454 81.3068 27.7727V50H71.625V29.5C71.6402 27.3484 71.0947 25.6742 69.9887 24.4772C68.8978 23.2803 67.3674 22.6818 65.3978 22.6818C64.0796 22.6818 62.9129 22.9621 61.8978 23.5227C60.8978 24.0833 60.1099 24.9015 59.5341 25.9772C58.9735 27.0378 58.6856 28.3181 58.6705 29.8181Z" stroke="currentColor"/>
<path fill="transparent" stoke-width="18" class="hero" d="M88.9262 50V15.0909H98.3125V21.1818H98.6762C99.3125 19.0151 100.381 17.3787 101.881 16.2727C103.381 15.1515 105.108 14.5909 107.063 14.5909C107.547 14.5909 108.07 14.6212 108.631 14.6818C109.191 14.7424 109.684 14.8257 110.108 14.9318V23.5227C109.653 23.3863 109.025 23.2651 108.222 23.159C107.419 23.053 106.684 23 106.017 23C104.593 23 103.32 23.3106 102.199 23.9318C101.093 24.5378 100.214 25.3863 99.5625 26.4772C98.9262 27.5681 98.608 28.8257 98.608 30.25V50H88.9262Z" stroke="currentColor"/>
<path fill="transparent" stoke-width="18" class="hero" d="M115.114 50V15.0909H124.795V50H115.114ZM119.977 10.5909C118.538 10.5909 117.303 10.1136 116.273 9.15905C115.258 8.18935 114.75 7.03026 114.75 5.68177C114.75 4.34844 115.258 3.2045 116.273 2.24996C117.303 1.28026 118.538 0.79541 119.977 0.79541C121.417 0.79541 122.644 1.28026 123.659 2.24996C124.689 3.2045 125.205 4.34844 125.205 5.68177C125.205 7.03026 124.689 8.18935 123.659 9.15905C122.644 10.1136 121.417 10.5909 119.977 10.5909Z" stroke="currentColor"/>
<path fill="transparent" stoke-width="18" class="hero" d="M161.597 25.0454L152.733 25.5909C152.581 24.8333 152.256 24.1515 151.756 23.5454C151.256 22.9242 150.597 22.4318 149.778 22.0681C148.975 21.6894 148.013 21.5 146.892 21.5C145.392 21.5 144.127 21.8181 143.097 22.4545C142.066 23.0757 141.551 23.909 141.551 24.9545C141.551 25.7878 141.884 26.4924 142.551 27.0681C143.218 27.6439 144.362 28.106 145.983 28.4545L152.301 29.7272C155.695 30.4242 158.225 31.5454 159.892 33.0909C161.559 34.6363 162.392 36.6666 162.392 39.1818C162.392 41.4697 161.718 43.4772 160.369 45.2045C159.036 46.9318 157.203 48.2803 154.869 49.25C152.551 50.2045 149.877 50.6818 146.847 50.6818C142.225 50.6818 138.544 49.7197 135.801 47.7954C133.074 45.856 131.475 43.2197 131.006 39.8863L140.528 39.3863C140.816 40.7954 141.513 41.8712 142.619 42.6136C143.725 43.3409 145.142 43.7045 146.869 43.7045C148.566 43.7045 149.93 43.3787 150.96 42.7272C152.006 42.0606 152.536 41.2045 152.551 40.159C152.536 39.2803 152.165 38.5606 151.438 38C150.71 37.4242 149.589 36.9848 148.074 36.6818L142.028 35.4772C138.619 34.7954 136.081 33.6136 134.415 31.9318C132.763 30.25 131.938 28.106 131.938 25.5C131.938 23.2575 132.544 21.3257 133.756 19.7045C134.983 18.0833 136.703 16.8333 138.915 15.9545C141.142 15.0757 143.748 14.6363 146.733 14.6363C151.142 14.6363 154.612 15.5681 157.142 17.4318C159.688 19.2954 161.172 21.8333 161.597 25.0454Z" stroke="currentColor"/>
<path fill="transparent" stoke-width="18" class="hero" d="M187.057 15.0909V22.3636H166.034V15.0909H187.057ZM170.807 6.72723H180.489V39.2727C180.489 40.1666 180.625 40.8636 180.898 41.3636C181.17 41.8484 181.549 42.1894 182.034 42.3863C182.534 42.5833 183.11 42.6818 183.761 42.6818C184.216 42.6818 184.67 42.6439 185.125 42.5681C185.58 42.4772 185.928 42.409 186.17 42.3636L187.693 49.5681C187.208 49.7197 186.527 49.8939 185.648 50.0909C184.769 50.303 183.701 50.4318 182.443 50.4772C180.11 50.5681 178.064 50.2575 176.307 49.5454C174.564 48.8333 173.208 47.7272 172.239 46.2272C171.269 44.7272 170.792 42.8333 170.807 40.5454V6.72723Z" stroke="currentColor"/>
<path fill="transparent" stoke-width="18" class="hero" d="M208.761 50.6818C205.231 50.6818 202.178 49.9318 199.602 48.4318C197.042 46.9166 195.064 44.8106 193.67 42.1136C192.277 39.4015 191.58 36.2575 191.58 32.6818C191.58 29.0757 192.277 25.9242 193.67 23.2272C195.064 20.5151 197.042 18.409 199.602 16.909C202.178 15.3939 205.231 14.6363 208.761 14.6363C212.292 14.6363 215.337 15.3939 217.898 16.909C220.474 18.409 222.458 20.5151 223.852 23.2272C225.246 25.9242 225.943 29.0757 225.943 32.6818C225.943 36.2575 225.246 39.4015 223.852 42.1136C222.458 44.8106 220.474 46.9166 217.898 48.4318C215.337 49.9318 212.292 50.6818 208.761 50.6818ZM208.807 43.1818C210.413 43.1818 211.754 42.7272 212.83 41.8181C213.905 40.8939 214.716 39.6363 215.261 38.0454C215.822 36.4545 216.102 34.6439 216.102 32.6136C216.102 30.5833 215.822 28.7727 215.261 27.1818C214.716 25.5909 213.905 24.3333 212.83 23.409C211.754 22.4848 210.413 22.0227 208.807 22.0227C207.186 22.0227 205.822 22.4848 204.716 23.409C203.625 24.3333 202.799 25.5909 202.239 27.1818C201.693 28.7727 201.42 30.5833 201.42 32.6136C201.42 34.6439 201.693 36.4545 202.239 38.0454C202.799 39.6363 203.625 40.8939 204.716 41.8181C205.822 42.7272 207.186 43.1818 208.807 43.1818Z" stroke="currentColor"/>
<path fill="transparent" stoke-width="18" class="hero" d="M232.239 63.0909V15.0909H241.784V20.9545H242.216C242.64 20.0151 243.254 19.0606 244.057 18.0909C244.875 17.106 245.936 16.2878 247.239 15.6363C248.557 14.9697 250.193 14.6363 252.148 14.6363C254.693 14.6363 257.042 15.303 259.193 16.6363C261.345 17.9545 263.064 19.9469 264.352 22.6136C265.64 25.2651 266.284 28.5909 266.284 32.5909C266.284 36.4848 265.655 39.7727 264.398 42.4545C263.155 45.1212 261.458 47.1439 259.307 48.5227C257.17 49.8863 254.777 50.5681 252.125 50.5681C250.246 50.5681 248.648 50.2575 247.33 49.6363C246.027 49.0151 244.958 48.2348 244.125 47.2954C243.292 46.3409 242.655 45.3787 242.216 44.409H241.92V63.0909H232.239ZM241.716 32.5454C241.716 34.6212 242.004 36.4318 242.58 37.9772C243.155 39.5227 243.989 40.7272 245.08 41.5909C246.17 42.4394 247.496 42.8636 249.057 42.8636C250.633 42.8636 251.966 42.4318 253.057 41.5681C254.148 40.6894 254.974 39.4772 255.534 37.9318C256.11 36.3712 256.398 34.5757 256.398 32.5454C256.398 30.5303 256.117 28.7575 255.557 27.2272C254.996 25.6969 254.17 24.5 253.08 23.6363C251.989 22.7727 250.648 22.3409 249.057 22.3409C247.481 22.3409 246.148 22.7575 245.057 23.5909C243.981 24.4242 243.155 25.606 242.58 27.1363C242.004 28.6666 241.716 30.4697 241.716 32.5454Z" stroke="currentColor"/>
<path fill="transparent" stoke-width="18" class="hero" d="M282.42 29.8181V50H272.739V3.4545H282.148V21.25H282.557C283.345 19.1894 284.617 17.5757 286.375 16.409C288.133 15.2272 290.337 14.6363 292.989 14.6363C295.413 14.6363 297.527 15.1666 299.33 16.2272C301.148 17.2727 302.557 18.7803 303.557 20.75C304.572 22.7045 305.072 25.0454 305.057 27.7727V50H295.375V29.5C295.39 27.3484 294.845 25.6742 293.739 24.4772C292.648 23.2803 291.117 22.6818 289.148 22.6818C287.83 22.6818 286.663 22.9621 285.648 23.5227C284.648 24.0833 283.86 24.9015 283.284 25.9772C282.724 27.0378 282.436 28.3181 282.42 29.8181Z" stroke="currentColor"/>
<path fill="transparent" stoke-width="18" class="hero" d="M328.585 50.6818C324.994 50.6818 321.903 49.9545 319.313 48.5C316.737 47.0303 314.752 44.9545 313.358 42.2727C311.964 39.5757 311.267 36.3863 311.267 32.7045C311.267 29.1136 311.964 25.9621 313.358 23.25C314.752 20.5378 316.714 18.4242 319.244 16.909C321.79 15.3939 324.775 14.6363 328.199 14.6363C330.502 14.6363 332.646 15.0075 334.631 15.75C336.631 16.4772 338.373 17.5757 339.858 19.0454C341.358 20.5151 342.525 22.3636 343.358 24.5909C344.191 26.803 344.608 29.3939 344.608 32.3636V35.0227H315.131V29.0227H335.494C335.494 27.6287 335.191 26.3939 334.585 25.3181C333.979 24.2424 333.138 23.4015 332.063 22.7954C331.002 22.1742 329.767 21.8636 328.358 21.8636C326.888 21.8636 325.585 22.2045 324.449 22.8863C323.328 23.553 322.449 24.4545 321.813 25.5909C321.176 26.7121 320.85 27.9621 320.835 29.3409V35.0454C320.835 36.7727 321.153 38.2651 321.79 39.5227C322.441 40.7803 323.358 41.75 324.54 42.4318C325.722 43.1136 327.123 43.4545 328.744 43.4545C329.82 43.4545 330.805 43.303 331.699 43C332.593 42.6969 333.358 42.2424 333.994 41.6363C334.631 41.0303 335.116 40.2878 335.449 39.409L344.403 40C343.949 42.1515 343.017 44.0303 341.608 45.6363C340.214 47.2272 338.411 48.4697 336.199 49.3636C334.002 50.2424 331.464 50.6818 328.585 50.6818Z" stroke="currentColor"/>
<path fill="transparent" stoke-width="18" class="hero" d="M350.926 50V15.0909H360.313V21.1818H360.676C361.313 19.0151 362.381 17.3787 363.881 16.2727C365.381 15.1515 367.108 14.5909 369.063 14.5909C369.547 14.5909 370.07 14.6212 370.631 14.6818C371.191 14.7424 371.684 14.8257 372.108 14.9318V23.5227C371.653 23.3863 371.025 23.2651 370.222 23.159C369.419 23.053 368.684 23 368.017 23C366.593 23 365.32 23.3106 364.199 23.9318C363.093 24.5378 362.214 25.3863 361.563 26.4772C360.926 27.5681 360.608 28.8257 360.608 30.25V50H350.926Z" stroke="currentColor"/>
<path fill="transparent" stoke-width="18" class="hero" d="M400.131 50H389.585L405.653 3.4545H418.335L434.381 50H423.835L412.176 14.0909H411.813L400.131 50ZM399.472 31.7045H424.381V39.3863H399.472V31.7045Z" stroke="currentColor"/>
<path fill="transparent" stoke-width="18" class="hero" d="M449.483 3.4545V50H439.801V3.4545H449.483Z" stroke="currentColor"/>
<path fill="transparent" stoke-width="18" class="hero" d="M457.42 50V3.4545H467.102V20.9545H467.398C467.822 20.0151 468.436 19.0606 469.239 18.0909C470.057 17.106 471.117 16.2878 472.42 15.6363C473.739 14.9697 475.375 14.6363 477.33 14.6363C479.875 14.6363 482.224 15.303 484.375 16.6363C486.527 17.9545 488.246 19.9469 489.534 22.6136C490.822 25.2651 491.466 28.5909 491.466 32.5909C491.466 36.4848 490.837 39.7727 489.58 42.4545C488.337 45.1212 486.64 47.1439 484.489 48.5227C482.352 49.8863 479.958 50.5681 477.307 50.5681C475.428 50.5681 473.83 50.2575 472.511 49.6363C471.208 49.0151 470.14 48.2348 469.307 47.2954C468.474 46.3409 467.837 45.3787 467.398 44.409H466.966V50H457.42ZM466.898 32.5454C466.898 34.6212 467.186 36.4318 467.761 37.9772C468.337 39.5227 469.17 40.7272 470.261 41.5909C471.352 42.4394 472.678 42.8636 474.239 42.8636C475.814 42.8636 477.148 42.4318 478.239 41.5681C479.33 40.6894 480.155 39.4772 480.716 37.9318C481.292 36.3712 481.58 34.5757 481.58 32.5454C481.58 30.5303 481.299 28.7575 480.739 27.2272C480.178 25.6969 479.352 24.5 478.261 23.6363C477.17 22.7727 475.83 22.3409 474.239 22.3409C472.663 22.3409 471.33 22.7575 470.239 23.5909C469.163 24.4242 468.337 25.606 467.761 27.1363C467.186 28.6666 466.898 30.4697 466.898 32.5454Z" stroke="currentColor"/>
<path fill="transparent" stoke-width="18" class="hero" d="M507.881 50.659C505.653 50.659 503.669 50.2727 501.926 49.5C500.184 48.7121 498.805 47.553 497.79 46.0227C496.79 44.4772 496.29 42.553 496.29 40.25C496.29 38.3106 496.646 36.6818 497.358 35.3636C498.07 34.0454 499.04 32.9848 500.267 32.1818C501.494 31.3787 502.888 30.7727 504.449 30.3636C506.025 29.9545 507.676 29.6666 509.403 29.5C511.434 29.2878 513.07 29.0909 514.312 28.909C515.555 28.7121 516.456 28.4242 517.017 28.0454C517.578 27.6666 517.858 27.106 517.858 26.3636V26.2272C517.858 24.7878 517.403 23.6742 516.494 22.8863C515.6 22.0984 514.328 21.7045 512.676 21.7045C510.934 21.7045 509.547 22.0909 508.517 22.8636C507.487 23.6212 506.805 24.5757 506.472 25.7272L497.517 25C497.972 22.8787 498.866 21.0454 500.199 19.5C501.532 17.9394 503.252 16.7424 505.358 15.909C507.479 15.0606 509.934 14.6363 512.722 14.6363C514.661 14.6363 516.517 14.8636 518.29 15.3181C520.078 15.7727 521.661 16.4772 523.04 17.4318C524.434 18.3863 525.532 19.6136 526.335 21.1136C527.138 22.5984 527.54 24.3787 527.54 26.4545V50H518.358V45.159H518.085C517.525 46.25 516.775 47.2121 515.835 48.0454C514.896 48.8636 513.767 49.5075 512.449 49.9772C511.131 50.4318 509.608 50.659 507.881 50.659ZM510.653 43.9772C512.078 43.9772 513.335 43.6969 514.426 43.1363C515.517 42.5606 516.373 41.7878 516.994 40.8181C517.616 39.8484 517.926 38.75 517.926 37.5227V33.8181C517.623 34.0151 517.206 34.1969 516.676 34.3636C516.161 34.5151 515.578 34.659 514.926 34.7954C514.275 34.9166 513.623 35.0303 512.972 35.1363C512.32 35.2272 511.729 35.3106 511.199 35.3863C510.063 35.553 509.07 35.8181 508.222 36.1818C507.373 36.5454 506.714 37.0378 506.244 37.659C505.775 38.2651 505.54 39.0227 505.54 39.9318C505.54 41.25 506.017 42.2575 506.972 42.9545C507.941 43.6363 509.169 43.9772 510.653 43.9772Z" stroke="currentColor"/>
</svg>
