<svg width="484" height="353" viewBox="0 0 484 353" fill="none" xmlns="http://www.w3.org/2000/svg">
<path d="M355.905 131.05C355.355 132.893 355.022 134.654 354.962 134.835C354.736 135.507 354.502 135.273 354.487 135.311C353.354 138.582 351.286 141.641 351.181 145.245C349.045 144.648 343.339 136.98 348.343 148.795C344.116 166.359 342.622 163.775 327.074 164.168C324.969 164.221 320.252 164.221 318.093 164.168C314.931 164.085 305.089 165.512 307.693 159.907C307.746 159.786 309.557 158.744 309.58 158.019C313.014 157.384 316.651 156.387 315.723 151.87C315.21 149.369 312.727 150.057 312.417 148.795C314.583 145.924 316.584 121.728 317.851 121.116C319.663 120.248 352.743 121.781 358.026 121.116C358.977 121.789 356.358 129.517 355.898 131.05H355.905Z" fill="#DCDCDD"/>
<path d="M387.574 143.348C389.861 145.607 394.291 150.865 396.08 152.338C395.446 159.681 388.118 155.866 386.155 158.253C384.842 159.854 386.314 162.936 386.155 164.168C385.914 166.079 385.695 165.512 385.68 165.588C384.14 166.071 384.714 168.738 383.793 169.373C383.31 168.247 381.634 168.028 380.487 167.008C377.446 164.311 374.238 159.786 371.506 156.598C365.649 149.754 359.883 142.54 354.494 135.311C354.502 135.28 354.736 135.507 354.97 134.835C366.691 132.123 378.344 133.664 370.57 127.265C370.645 127.235 370.615 125.868 371.279 125.845C372.472 125.808 384.012 139.813 387.589 143.348H387.574Z" fill="#A6D33F"/>
<path d="M370.562 127.265C378.344 133.664 366.683 132.123 354.962 134.835C355.022 134.653 355.354 132.893 355.905 131.05C360.728 130.446 365.989 128.905 370.555 127.265H370.562Z" fill="#F1F3F3"/>
<path d="M140.85 162.272C140.691 161.811 140.42 161.055 139.906 160.851C141.484 159.378 140.684 158.744 140.85 158.487C143.891 153.917 145.839 148.538 148.646 143.824C145.016 144.164 127.506 145.101 126.434 145.713C125.061 146.506 112.683 169.826 110.6 173.15C101.324 175.839 105.467 169.229 108.713 164.636C111.377 160.859 116.109 160.648 112.494 156.591C113.46 156.153 121.393 140.81 123.128 140.032C123.43 139.896 126.902 139.768 128.563 139.556C130.827 139.269 147.31 137.668 148.178 138.136C148.774 138.461 147.122 141.15 153.612 140.735C151.529 144.21 148.925 147.594 146.993 151.144C144.752 155.261 142.918 161.871 140.85 162.264V162.272Z" fill="#F1F3F3"/>
<path d="M140.85 158.487H136.359L138.012 161.327C133.249 164.931 132.668 162.732 134.231 170.785C131.966 171.42 125.023 172.281 121.943 172.674C117.672 173.218 110.547 174.222 110.6 173.15C112.683 169.818 125.06 146.498 126.434 145.713C127.513 145.093 145.016 144.157 148.646 143.824C145.838 148.546 143.891 153.917 140.85 158.487Z" fill="#164275"/>
<path d="M140.85 158.487C140.676 158.744 141.484 159.378 139.906 160.851C139.838 160.919 138.133 161.237 138.019 161.327L136.366 158.487H140.857H140.85Z" fill="#1D82C9"/>
<path d="M406.481 59.1418C410.398 61.7857 410.322 64.747 414.753 63.4023C417.583 68.2672 420.421 72.8526 419.719 79.251C419.477 81.4644 417.055 85.3624 416.881 86.1102C416.375 85.725 415.817 84.8034 415.462 84.2217C409.522 74.4315 411.583 89.0262 409.085 89.8949H406.722C403.175 68.0708 400.322 74.3106 392.307 71.9159C389.907 71.1983 389.371 70.4051 388.525 68.1313C383.657 55.0323 399.877 58.7036 401.997 58.6734C402.828 58.6583 401.107 55.5158 406.488 59.1493L406.481 59.1418Z" fill="#0C0B10"/>
<path d="M405.062 289.061C405.115 290.089 404.918 291.388 405.062 291.902H397.024C397.054 291.811 397.039 290.104 397.024 290.013C397.794 290.074 398.005 289.605 398.911 289.537C401.129 289.371 402.375 290.323 405.054 289.061H405.062Z" fill="#562C40"/>
<path d="M445.244 156.598C444.278 158.525 441.546 160.814 441.463 161.093C440.806 163.397 442.119 177.199 441.463 179.541C441.41 179.729 440.119 180.092 440.044 180.251C425.809 183.408 399.779 183.816 386.631 177.886C385.408 177.335 384.857 176.05 384.744 175.998C383.74 173.082 385.197 168.965 385.687 165.588C385.695 165.512 385.921 166.079 386.163 164.168C388.918 165.709 404.103 165.611 405.545 163.458C409.545 157.46 400.05 155.586 396.095 152.338C394.307 150.872 389.869 145.615 387.589 143.348C391.635 130.725 390.91 115.489 400.82 105.502C400.956 105.562 401.235 104.784 403.182 105.502C403.318 105.555 404.118 107.149 405.311 107.39C411.235 108.629 417.696 105.66 421.145 100.765C424.149 103.47 429.666 106.016 434.851 111.885C444.286 122.559 451.916 143.28 445.252 156.591L445.244 156.598Z" fill="#5A1019"/>
<path d="M439.568 180.727C436.799 216.979 430.195 252.884 426.338 289.061C416.119 293.277 419.281 273.968 413.575 272.034C411.424 258.633 409.349 245.255 409.318 231.589H408.375C408.752 245.534 404.556 279.558 405.069 289.069C402.39 290.323 401.145 289.379 398.926 289.545C398.118 283.192 395.756 276.824 396.088 270.387C396.337 265.492 403.975 237.24 406.013 229.701C406.76 226.951 408.277 227.661 408.375 227.336C409.054 225.13 409.077 207.401 409.318 202.264C401.318 225.561 397.454 249.931 392.307 273.938C392.291 273.885 392.133 274.316 391.831 272.994C389.763 263.883 387.884 255.324 386.631 246.025C386.314 243.661 385.929 241.304 385.687 238.932C384.593 228.348 384.087 218.838 384.269 208.179C384.427 198.827 385.454 189.58 386.155 180.266C398.586 187.05 422.587 188.847 435.546 184.526C440.353 182.925 438.157 182.834 439.561 180.742L439.568 180.727Z" fill="#265174"/>
<path d="M398.918 289.53C398.005 289.598 397.801 290.058 397.031 290.006C396.895 289.175 394.488 283.35 392.307 273.923C397.454 249.915 401.318 225.546 409.318 202.249C409.077 207.385 409.047 225.115 408.375 227.321C408.277 227.653 406.752 226.936 406.013 229.685C403.975 237.224 396.337 265.477 396.088 270.372C395.756 276.808 398.118 283.177 398.926 289.53H398.918Z" fill="#164275"/>
<path d="M440.044 180.251C439.734 180.893 439.591 180.696 439.568 180.727C438.157 182.819 440.361 182.91 435.553 184.511C422.594 188.832 398.594 187.042 386.163 180.251C386.231 179.344 386.45 178.74 386.638 177.886C399.786 183.816 425.809 183.408 440.051 180.251H440.044Z" fill="#164275"/>
<path d="M426.338 289.061C426.353 289.53 426.315 290.013 426.338 290.482L417.832 290.957C417.696 289.991 415.304 282.791 413.575 272.034C419.281 273.976 416.111 293.277 426.338 289.061Z" fill="#164275"/>
<path d="M383.793 169.373C383.325 169.697 376.117 172.137 372.925 169.848C376.08 170.37 378.019 168.7 380.487 167.008C381.642 168.028 383.31 168.247 383.793 169.373Z" fill="#193C5B"/>
<path d="M380.487 167.008C378.019 168.693 376.08 170.37 372.925 169.849C371.068 168.519 371.151 167.31 370.087 165.588C370.208 162.4 369.913 159.635 371.506 156.599C374.238 159.787 377.446 164.311 380.487 167.008Z" fill="#9B5F38"/>
<path d="M421.138 100.773C417.688 105.661 411.228 108.637 405.303 107.398C404.111 107.149 403.311 105.555 403.175 105.51C403.582 105.562 403.605 105.389 403.65 105.034C407.53 108.811 418.398 104.769 419.719 99.8289C419.779 99.8893 420.451 100.154 421.138 100.773Z" fill="#5C80B6"/>
<path d="M386.155 164.168C386.314 162.936 384.842 159.854 386.155 158.253C388.118 155.866 395.446 159.681 396.08 152.338C400.035 155.586 409.53 157.452 405.53 163.458C404.096 165.611 388.91 165.709 386.148 164.168H386.155Z" fill="#9B5F38"/>
<path d="M415.937 94.624C416.186 95.7345 418.768 98.877 419.719 99.8289C418.398 104.769 407.53 108.811 403.65 105.034C403.779 103.901 403.462 102.292 403.65 101.725C403.696 101.581 403.597 101.385 403.65 101.249C408.669 101.264 412.481 95.8402 415.937 94.624Z" fill="#894B35"/>
<path d="M416.881 86.1102C416.413 88.1574 415.847 90.6352 415.937 92.7353C415.96 93.3774 415.832 94.1554 415.937 94.6238C412.481 95.84 408.669 101.264 403.65 101.249C404.133 100.04 414.79 96.2026 415.469 84.2217C415.824 84.8034 416.383 85.7325 416.888 86.1102H416.881Z" fill="#5E2D13"/>
<path d="M415.462 84.2143C414.783 96.2028 404.126 100.033 403.643 101.241C403.59 101.377 403.688 101.574 403.643 101.717C393.982 102.103 392.654 96.7467 391.356 88.9432C391.22 88.1349 390.895 86.6996 390.88 86.5787C390.382 81.6987 389.884 76.3805 392.299 71.916C400.314 74.3107 403.167 68.0709 406.715 89.895H409.077C411.575 89.0263 409.522 74.424 415.454 84.2218L415.462 84.2143Z" fill="#9B5F38"/>
<path d="M394.427 80.9054C395.861 79.6061 394.299 84.3728 393.484 89.419C390.873 87.0923 392.42 83.2019 394.427 80.9054Z" fill="#5E2D13"/>
<path d="M405.062 291.902C405.16 292.249 408.186 294.009 407.424 298.285C408.375 300.634 416.979 298.119 417.824 294.734C420.549 294.123 424.459 295.309 426.33 292.846C426.376 293.14 428.542 293.571 428.217 298.051C427.553 307.335 401.462 306.912 405.764 298.995C399.137 304.245 387.846 304.917 381.423 299.939C385.484 298.874 395.492 296.275 397.024 291.894H405.062V291.902Z" fill="#092150"/>
<path d="M429.644 299.471C429.764 301.775 430.761 303.029 429.168 305.144C404.616 309.352 404.737 303.475 403.409 303.256C402.073 303.037 377.053 309.518 379.536 301.367C379.71 301.118 379.929 300.733 380.012 300.423C380.389 300.325 380.744 300.128 381.431 299.947C387.854 304.925 399.144 304.253 405.771 299.003C401.469 306.919 427.56 307.342 428.225 298.058C428.889 298.391 428.61 298.912 429.644 299.479V299.471Z" fill="#0364C1"/>
<path d="M429.168 305.144C430.285 308.453 406.601 308.959 404.828 307.984C403.65 307.335 404.564 305.695 403.409 305.144C402.088 304.517 372.389 311.777 379.536 301.359C377.053 309.51 402.065 303.029 403.409 303.248C404.737 303.467 404.616 309.352 429.168 305.136V305.144Z" fill="#164275"/>
<path d="M426.338 290.481C426.376 291.244 426.225 292.128 426.338 292.846C424.459 295.309 420.557 294.123 417.832 294.734C417.953 294.251 417.93 291.645 417.832 290.95L426.338 290.474V290.481Z" fill="#562C40"/>
<path d="M311.949 149.974C313.693 150.351 314.395 150.691 315.731 151.862C316.651 156.38 313.021 157.384 309.587 158.011C309.527 158.019 309.164 157.007 308.878 157.067C299.255 159.144 280.537 174.298 284.537 156.123C285.345 155.541 286.62 154.302 286.9 153.282C297.413 154.582 298.009 152.678 303.911 150.918C305.051 150.578 305.745 148.637 311.949 149.974Z" fill="#9B5F38"/>
<path d="M351.181 145.244C352.992 145.751 352.969 143.87 354.487 144.769C354.071 145.637 352.72 149.528 352.124 151.152C352.026 151.416 350.962 151.416 350.705 152.096C350.132 153.599 351.868 172.5 328.493 166.525C328.063 165.671 327.64 164.931 327.074 164.16C342.622 163.767 344.116 166.351 348.343 148.787C343.331 136.98 349.045 144.64 351.181 145.237V145.244Z" fill="#894B35"/>
<path d="M307.7 113.071C307.753 113.086 307.353 113.207 308.644 113.547C306.274 118.979 297.677 120.187 292.575 119.696C292.953 117.03 300.198 118.888 304.394 112.127C305.3 112.61 306.772 112.799 307.7 113.071Z" fill="#9B5F38"/>
<path d="M284.537 156.123C280.537 174.298 299.262 159.144 308.878 157.067C309.164 157.006 309.527 158.026 309.587 158.011C309.557 158.736 307.753 159.779 307.7 159.9C307.73 159.242 305.76 159.288 305.338 159.424C303.496 160.02 282.59 175.235 269.42 162.732C267.782 161.184 267.48 159.907 266.582 158.004C267.722 158.192 268.748 158.729 269.888 158.948C274.137 159.779 281.065 158.615 284.537 156.107V156.123Z" fill="#894B35"/>
<path d="M300.138 107.874C301.141 109.77 302.5 111.13 304.394 112.135C300.206 118.896 292.952 117.037 292.575 119.704C290.032 119.462 282.726 117.785 285.013 114.031C286.613 113.321 289.971 112.301 289.737 110.246C291.571 110.971 298.319 109.03 300.138 107.882V107.874Z" fill="#894B35"/>
<path d="M317.625 245.534C317.648 245.95 317.217 246.01 317.149 246.478C315.678 257.001 315.127 261.655 312.893 272.495C307.617 270.886 301.526 266.558 297.292 263.037C297.292 262.962 296.907 263.498 296.817 261.617C298.56 261.927 297.383 259.577 297.76 258.067C297.881 257.576 301.202 248.986 301.541 248.609C302.379 247.672 305.61 247.763 307.21 247.423C310.47 246.735 314.055 246.327 317.61 245.534H317.625Z" fill="#9B5F38"/>
<path d="M307.225 247.43C305.625 247.77 302.394 247.679 301.557 248.616C301.217 248.994 297.896 257.583 297.775 258.074C297.398 259.585 298.575 261.934 296.832 261.625C296.628 257.062 296.545 252.469 296.356 247.906C299.843 247.959 303.662 246.894 307.225 247.43Z" fill="#894B35"/>
<path d="M332.275 240.805C329.739 243.396 321.255 244.726 317.625 245.534C314.078 246.327 310.485 246.735 307.225 247.423C303.662 246.879 299.843 247.951 296.356 247.899C295.232 247.883 293.609 247.921 293.051 247.899C288.13 247.672 277.216 245.655 271.782 244.59C269.895 244.22 268.016 243.585 266.114 243.17C265.676 224.662 268.341 206.486 271.314 188.296C287.843 193.41 305.874 191.401 321.889 185.456C325.331 196.991 330.546 227.381 332.29 240.805H332.275Z" fill="#356896"/>
<path d="M321.882 185.456C305.866 191.401 287.835 193.41 271.307 188.296C271.533 186.906 271.775 185.448 271.782 184.035C290.13 189.384 315.927 183.068 319.519 183.091C320.712 183.091 320.636 181.278 321.882 185.456Z" fill="#265174"/>
<path d="M285.013 114.023C282.726 117.785 290.032 119.455 292.575 119.696C297.685 120.187 306.274 118.979 308.644 113.547C310.115 113.932 319.685 114.711 319.987 115.677C313.338 120.308 316.576 123.572 315.731 128.92C314.629 135.968 312.168 143.107 311.949 149.974C305.745 148.636 305.059 150.578 303.911 150.918C291.375 156.251 285.066 140.939 281.933 131.519C281.496 135.568 287.601 150.737 286.9 153.282C286.62 154.295 285.345 155.533 284.537 156.123C281.058 158.631 274.137 159.794 269.888 158.963C271.858 158.17 267.865 153.154 267.05 147.843C266.197 142.238 268.152 135.401 265.631 137.199C267.94 127.183 274.431 118.057 283.828 113.547C284.364 113.29 284.681 114.167 285.013 114.023Z" fill="#F9E7AB"/>
<path d="M307.7 159.907C305.096 165.505 314.931 164.085 318.1 164.168C318.697 170.128 322.931 179.76 319.519 183.091C315.927 183.076 290.13 189.391 271.782 184.035C271.729 184.02 272.024 183.983 270.839 183.559C272.446 182.056 279.677 184.753 280.529 184.504C280.914 184.39 284.13 179.646 285.73 178.355C291.488 173.701 306.772 165.973 305.345 159.431C305.768 159.295 307.738 159.25 307.708 159.907H307.7Z" fill="#F9E7AB"/>
<path d="M270.831 183.567C269.125 182.97 267.623 183.152 266.574 181.437L269.412 162.748C282.59 175.25 303.489 160.036 305.33 159.439C306.757 165.981 291.473 173.709 285.715 178.362C284.114 179.654 280.899 184.398 280.514 184.511C279.662 184.761 272.431 182.064 270.824 183.567H270.831Z" fill="#F9E7AB"/>
<path d="M269.888 158.963C268.748 158.736 267.722 158.208 266.582 158.019C263.103 150.623 263.835 145.025 265.638 137.207C268.159 135.409 266.197 142.246 267.057 147.851C267.865 153.161 271.865 158.177 269.895 158.97L269.888 158.963Z" fill="#F9E7AB"/>
<path d="M303.919 150.918C298.017 152.678 297.421 154.589 286.907 153.282C287.609 150.736 281.503 135.568 281.941 131.519C285.073 140.939 291.383 156.243 303.919 150.918Z" fill="#F9E7AB"/>
<path d="M293.043 247.906C294.273 254.66 294.621 294.1 295.405 296.397C295.73 297.341 299.33 299.592 299.662 303.732C299.745 304.744 299.609 305.786 299.662 306.806C298.734 308.755 276.175 309.805 275.088 306.806C274.19 303.52 279.888 302.969 284.537 299.947C285.413 299.38 287.911 298.716 287.843 297.348C287.767 295.732 281.05 287.513 276.024 267.305C275.133 263.725 274.318 260.053 273.661 256.427C272.952 252.507 272.695 248.488 271.775 244.597C277.209 245.663 288.122 247.68 293.043 247.906Z" fill="#603813"/>
<path d="M312.9 272.503C310.878 282.338 305.3 298.534 309.119 299.939C327.806 310.039 305.7 309.495 302.266 308.453C300.221 307.833 300.5 305.212 300.138 303.248C299.556 300.068 299.949 297.363 299.662 295.445C299.624 295.18 298.273 294.274 298.243 294.024C297.3 286.062 297.722 271.989 297.3 263.037C301.534 266.557 307.625 270.893 312.9 272.495V272.503Z" fill="#603813"/>
<path d="M305.806 71.9161C304.228 81.1927 309.202 88.8224 310.063 97.6986L311.715 97.9328C316.04 91.7912 314.342 99.64 327.784 97.9328C330.252 93.506 327.512 91.4362 327.55 91.0736C327.61 90.439 331.859 88.3918 330.388 79.2437C329.822 75.7234 326.984 74.2277 327.082 71.9086C333.195 74.0615 329.641 77.9066 333.701 78.5336C333.686 78.6922 333.709 78.8509 333.701 79.0095C333.497 83.1794 334.252 84.6298 334.176 84.9245C333.875 86.118 332.493 84.7432 332.29 85.4004C332.192 85.7252 334.561 90.2728 333.709 92.0254C330.35 89.4116 328.818 100.025 326.856 100.781C324.418 101.71 315.225 99.7684 314.568 99.8364C313.255 99.9649 306.047 105.472 305.353 102.677C309.715 95.5079 303.202 85.491 302.991 84.2295C302.281 80.052 304.085 75.308 302.515 71.4553C303.406 71.5006 304.183 71.8481 305.821 71.9312L305.806 71.9161Z" fill="#452111"/>
<path d="M279.337 71.44C276.182 73.7289 276.227 76.1992 272.25 77.8233C277.745 76.5769 269.586 84.8487 273.435 93.672C274.612 93.7476 272.476 81.5853 281.231 71.9084C285.179 72.1274 287.201 70.5411 289.028 70.4882C293.662 70.3522 296.304 70.9565 297.3 70.9641V81.3738C294.077 81.268 291.443 83.5192 289.262 85.6343C285.918 84.1613 290.273 80.2784 289.262 74.9905C287.85 72.5127 279.284 88.588 281.699 94.1479C281.677 94.1706 281.805 94.6767 281.224 94.6238C281.209 94.5181 279.911 93.8382 279.805 92.9695C279.669 91.8514 281.073 87.5456 280.28 83.5116C278.718 79.3719 275.79 92.4785 279.805 101.491C276.25 103.341 276.363 94.3897 267.518 97.9401C266.522 96.9959 264.303 95.9005 263.737 94.8656C261.729 91.2018 261.087 78.9413 264.446 74.7563C270.107 80.4371 261.993 67.2701 270.114 75.2322C274.831 68.2672 273.79 71.0774 279.329 71.4476L279.337 71.44Z" fill="#5E2D13"/>
<path d="M281.231 94.6238C281.835 98.2272 281.156 98.0836 283.118 102.193C281.473 104.384 273.126 104.074 270.831 102.669C271.767 101.513 272.25 101.581 272.25 101.483C272.25 101.173 271.85 102.042 267.525 97.9326C276.378 94.3745 276.258 103.326 279.813 101.483C275.79 92.4709 278.718 79.3643 280.288 83.504C281.088 87.5455 279.677 91.8514 279.813 92.9619C279.918 93.8306 281.209 94.5105 281.231 94.6163V94.6238Z" fill="#452111"/>
<path d="M281.231 71.9161C272.469 81.593 274.605 93.7553 273.435 93.6798C269.593 84.8565 277.752 76.5922 272.25 77.831C276.235 76.1993 276.182 73.7367 279.337 71.4478C279.579 71.4629 279.729 71.8406 281.224 71.9237L281.231 71.9161Z" fill="#452111"/>
<path d="M301.081 70.9719C299.602 72.4072 300.636 79.2739 301.081 82.8017C299.956 82.1143 298.658 81.4269 297.3 81.3815V70.9719C298.56 70.9794 299.821 70.9416 301.081 70.9719Z" fill="#452111"/>
<path d="M302.5 71.44C304.07 75.2927 302.266 80.0291 302.976 84.2142C302.236 83.8516 301.798 83.2246 301.089 82.794C300.643 79.2737 299.609 72.407 301.089 70.9641C302.1 70.9868 302.13 71.4174 302.508 71.44H302.5Z" fill="#5E2D13"/>
<path d="M318.1 67.6555C318.478 67.6403 321.482 68.0332 321.882 68.1314C323.172 68.4335 324.969 69.9746 326.138 70.4958L327.082 71.916C326.984 74.2276 329.822 75.7309 330.388 79.2511C331.859 88.3993 327.618 90.4465 327.55 91.081C327.512 91.4512 330.252 93.5135 327.784 97.9402C314.334 99.6475 316.04 91.7987 311.715 97.9402L310.062 97.706C309.21 88.8299 304.236 81.2001 305.806 71.9236C306.138 71.9387 306.266 69.9142 311.949 71.4477C311.61 74.2805 313.851 79.9839 312.893 82.5674C312.795 82.8243 310.387 82.152 310.53 86.828C317.406 84.1916 309.64 89.7137 312.183 91.7987C320.101 87.9611 312.425 93.1811 319.036 92.9847C318.025 87.3417 318.855 73.797 312.417 71.4628C314.349 68.7433 314.772 67.8065 318.085 67.6781L318.1 67.6555Z" fill="#5E2D13"/>
<path d="M311.949 71.4402C312.1 71.4779 312.289 71.3948 312.425 71.4402C318.863 73.7744 318.033 87.3191 319.044 92.9621C312.432 93.1585 320.108 87.9461 312.191 91.776C309.647 89.6911 317.414 84.169 310.538 86.8054C310.395 82.1369 312.81 82.8017 312.9 82.5448C313.851 79.9613 311.617 74.2579 311.957 71.425L311.949 71.4402Z" fill="#452111"/>
<path d="M324.954 72.8603C328.697 72.3768 322.938 76.7356 322.825 87.2888C320.463 90.6731 315.768 77.1737 324.954 72.8603Z" fill="#452111"/>
<path d="M321.64 88.9507L324.236 89.1849C323.784 96.6031 316.999 94.6617 321.64 88.9507Z" fill="#452111"/>
<path d="M289.262 85.6345C284.326 90.4088 284.862 93.1056 284.537 93.438C284.167 93.8157 283.669 92.3729 281.699 94.1481C279.284 88.5882 287.851 72.5053 289.262 74.9907C290.273 80.2786 285.918 84.169 289.262 85.6345Z" fill="#452111"/>
<path d="M297.3 81.3815C298.658 81.4268 299.957 82.1142 301.081 82.8017C301.791 83.2323 302.236 83.8593 302.968 84.2219C303.179 85.4834 309.7 95.5003 305.33 102.669C305.142 102.986 300.44 107.678 300.13 107.874C298.319 109.03 291.571 110.964 289.73 110.239C289.451 110.125 285.926 106.484 285.473 105.978C285.322 105.812 283.209 102.397 283.111 102.193C281.141 98.0838 281.82 98.2273 281.224 94.624C281.797 94.6769 281.669 94.1707 281.699 94.1481C283.662 92.3804 284.167 93.8157 284.537 93.438C284.862 93.1056 284.326 90.4088 289.262 85.6345C291.443 83.5269 294.077 81.2682 297.3 81.3739V81.3815Z" fill="#9B5F38"/>
<path d="M298.953 101.249C300.206 103.629 292.538 108.018 289.737 103.848C289.843 102.004 294.039 107.972 298.953 101.249Z" fill="#733B23"/>
<path d="M291.39 88.4749L290.915 95.5682C288.688 93.8006 289.292 90.3105 291.39 88.4749Z" fill="#5E2D13"/>
<path d="M299.896 92.2595L300.606 92.9696C297.632 97.6003 298.651 92.2973 299.896 92.2595Z" fill="#452111"/>
<path d="M121.943 175.522C122.872 183.136 125.189 190.879 125.725 199.884C126.751 217.047 125.43 235.162 122.887 252.159C121.747 259.781 118.577 274.693 116.743 282.67C116.23 284.906 114.872 284.846 114.381 288.585C112.698 286.523 108.32 288.804 105.4 287.641C101.815 272.004 103.822 255.709 101.852 239.861C100.267 255.566 99.2031 271.309 96.8861 286.931C96.7804 287.626 95.3087 288.268 94.9992 290.481C91.7765 290.927 85.965 289.673 86.9612 292.846H86.4857C85.1348 286.704 83.8743 280.404 83.18 274.157C80.6063 251.033 77.7609 227.955 75.142 204.847C74.6816 200.745 74.1608 196.643 73.7231 192.549C73.1495 187.178 73.2099 181.807 72.7797 176.466C75.625 177.864 78.644 178.755 81.7611 179.306C87.5047 180.326 99.4748 180.832 105.158 180.251C110.736 179.684 116.841 176.662 121.936 175.522H121.943Z" fill="#3C0F11"/>
<path d="M114.381 293.79C114.63 294.674 116.441 296.079 117.219 296.631C120.004 298.595 123.906 299.048 127.144 299.939C135.627 312.086 111.407 305.786 109.422 306.564C108.547 306.904 108.524 308.959 107.06 309.405C103.181 310.583 86.9084 308.468 85.0819 304.676C88.7273 306.534 104.577 308.528 107.06 307.516C107.996 307.131 107.535 305.537 108.479 305.152C110.826 304.192 130.027 308.483 127.861 302.311C120.826 305.416 108.562 304.079 103.52 297.582C104.116 295.664 103.807 292.891 105.883 291.909C107.083 294.402 112.154 294.697 114.388 293.798L114.381 293.79Z" fill="#092150"/>
<path d="M114.381 288.585C114.275 289.394 114.253 293.345 114.381 293.79C112.147 294.682 107.068 294.387 105.875 291.902C104.992 290.066 105.694 288.918 105.4 287.641C108.313 288.804 112.69 286.531 114.381 288.585Z" fill="#841619"/>
<path d="M95.0067 290.481C94.9689 290.738 94.9689 295.429 95.0067 295.686C91.2707 295.732 89.1952 296.313 86.9687 292.846C85.9724 289.673 91.7764 290.92 95.0067 290.481Z" fill="#841619"/>
<path d="M86.9687 292.846C89.1952 296.313 91.2632 295.732 95.0067 295.686C95.2935 297.726 99.2559 299.554 100.916 300.415C101.731 300.838 102.939 299.886 103.045 299.939C117.317 306.904 89.7612 309.949 84.6139 298.519C84.8479 296.865 84.9535 293.843 86.5007 292.846H86.9762H86.9687Z" fill="#092150"/>
<path d="M85.0743 304.668C83.678 301.775 84.1611 301.684 84.5988 298.519C89.7537 309.949 117.302 306.904 103.03 299.939C101.716 297.99 103.46 297.711 103.505 297.575C108.547 304.072 120.811 305.409 127.845 302.304C130.019 308.476 110.819 304.185 108.464 305.144C107.528 305.53 107.988 307.123 107.045 307.509C104.562 308.521 88.7122 306.527 85.0668 304.668H85.0743Z" fill="#0364C1"/>
<path d="M107.294 114.023C109.226 117.218 112.69 118.065 112.962 118.284C119.423 123.368 124.064 132.72 128.563 139.571C126.902 139.783 123.43 139.911 123.128 140.047C121.393 140.825 113.46 156.168 112.494 156.606C112.343 156.674 111.536 156.636 111.075 156.606L112.494 155.42C112.736 153.834 96.7729 136.27 94.2973 134.366C88.0405 129.562 82.0932 128.482 75.1571 125.377C75.2477 125.158 75.6326 123.232 75.1571 123.488C75.4364 123.239 76.41 121.713 76.576 121.6C77.0062 121.305 84.9461 117.777 86.0254 117.339C86.9462 116.969 89.5349 116.803 91.2255 115.919C91.7388 117.77 94.1162 119.371 95.9502 119.704C103.324 121.033 108.079 120.505 105.875 115.443C105.784 115.232 105.966 114.635 105.875 114.499C105.867 113.706 106.698 114.167 107.294 114.023Z" fill="#0170B2"/>
<path d="M75.1495 125.377C75.0589 125.596 74.4627 126.752 74.2061 127.265C73.6627 128.368 72.8702 129.426 72.3192 130.574C69.7682 135.87 67.7002 139.458 67.5946 145.947C67.1945 169.599 89.8896 164.53 106.35 167.711C103.581 173.18 90.2141 174.343 89.5726 175.046C87.731 177.04 93.6406 179.714 81.7761 179.306C78.659 178.755 75.6401 177.863 72.7947 176.466C72.7645 176.111 72.3947 176.066 72.3192 175.046C72.0777 171.745 72.8853 169.864 72.7947 169.607C72.523 168.851 64.6662 168.179 63.3454 158.963C61.6925 147.443 66.2436 131.428 75.1646 123.481C75.6401 123.232 75.2552 125.15 75.1646 125.369L75.1495 125.377Z" fill="#164275"/>
<path d="M83.663 134.366C90.0782 138.264 92.0255 138.325 92.4104 138.627C93.1048 139.171 101.203 150.578 103.045 152.821C102.32 155.367 103.762 155.08 103.988 155.186C104.449 155.405 105.837 154.748 105.875 155.662C105.679 155.684 102.275 156.546 102.094 156.606C101.445 155.057 101.173 156.13 100.675 156.13C100.403 155.435 101.588 154.884 100.909 154.242C100.011 153.388 78.1911 145.396 77.5118 146.438C77.7382 150.419 78.4779 150.238 78.4552 150.457C78.4326 150.653 76.5231 153.811 76.5684 154.007C76.9307 155.699 94.4708 162.151 97.837 161.342C98.9691 165.301 103.135 163.239 104.924 160.867C106.667 161.418 105.603 163.08 107.762 164.175C108.086 164.341 108.358 164.583 108.705 164.651C105.467 169.244 101.324 175.854 110.592 173.165C110.539 174.237 117.664 173.24 121.936 172.689C122.011 173.618 121.823 174.608 121.936 175.529C116.834 176.677 110.735 179.692 105.158 180.258C99.4823 180.84 87.5046 180.334 81.761 179.314C93.6255 179.722 87.7159 177.048 89.5575 175.053C90.199 174.358 103.565 173.187 106.335 167.718C89.8669 164.538 67.1794 169.614 67.5794 145.955C67.6851 139.466 69.7531 135.877 72.3041 130.582C73.6174 137.32 81.844 140.372 82.7044 139.337C82.0403 136.534 81.6855 136.391 83.6479 134.366H83.663Z" fill="#21558D"/>
<path d="M111.075 156.598C109.852 156.523 109.649 155.239 105.875 155.654C105.837 154.748 104.449 155.397 103.988 155.178C105.218 153.72 103.709 153.622 103.045 152.814C101.203 150.57 93.1048 139.171 92.4104 138.619C92.0255 138.317 90.0858 138.257 83.663 134.359C80.3044 132.319 76.4778 130.808 74.2136 127.266C74.4702 126.744 75.0665 125.596 75.157 125.377C82.0931 128.482 88.0405 129.562 94.2973 134.366C96.7728 136.27 112.736 153.834 112.494 155.42L111.075 156.606V156.598Z" fill="#356896"/>
<path d="M83.663 134.367C81.7006 136.384 82.0554 136.535 82.7195 139.337C81.8591 140.38 73.6325 137.32 72.3192 130.582C72.8702 129.434 73.6627 128.369 74.2061 127.273C76.4778 130.816 80.2968 132.327 83.6554 134.367H83.663Z" fill="#356896"/>
<path d="M100.675 156.123C101.173 156.123 101.437 155.042 102.094 156.599C97.4219 158.276 96.6747 157.271 97.837 161.327C94.4709 162.136 76.9307 155.692 76.5684 153.992C76.5231 153.796 78.4402 150.646 78.4553 150.442C85.1347 151.515 94.4482 156.13 100.667 156.115L100.675 156.123Z" fill="#356896"/>
<path d="M100.675 156.123C94.4482 156.13 85.1347 151.522 78.4628 150.449C78.4855 150.223 77.7458 150.412 77.5194 146.431C78.1987 145.396 100.018 153.38 100.916 154.234C101.596 154.876 100.403 155.428 100.682 156.123H100.675Z" fill="#164275"/>
<path d="M103.981 155.178C103.754 155.072 102.305 155.359 103.037 152.814C103.701 153.622 105.211 153.72 103.981 155.178Z" fill="#356896"/>
<path d="M117.219 100.305C115.453 98.0006 110.637 98.9902 110.841 93.6796C119.709 106.084 117.294 81.0565 106.584 84.6901C105.988 84.8941 96.9766 91.5795 96.4256 92.2594C92.6142 86.2916 112.071 84.7505 108.713 76.1765H109.188C113.264 77.8762 116.962 72.9886 121.951 83.0357C119.475 91.7306 121.294 80.8526 115.098 77.5967C102.297 81.7515 115.649 82.8393 118.17 87.2963C122.389 94.7523 117.415 99.6323 117.226 100.305H117.219Z" fill="#241C1F"/>
<path d="M129.981 96.5199C129.966 96.9958 130.004 97.4642 129.981 97.9401C121.098 95.1299 119.249 103.334 128.095 102.669C127.906 102.911 127.227 104.051 127.151 104.089C126.812 104.255 126.562 104.497 126.208 104.565C123.204 105.139 120.132 100.864 123.845 109.294C123.317 110.216 122.208 112.346 121.959 112.603C118.879 115.715 118.592 114.159 115.815 115.443C114.705 114.091 113.226 111.878 111.558 112.134C113.121 111.032 114.426 109.558 115.339 107.874C120.449 111.636 119.204 104.875 119.596 103.855C119.649 103.711 121.815 102.677 121.959 101.966C121.981 101.838 120.902 100.123 121.015 99.602C121.845 95.7569 126.94 95.485 129.997 96.5275L129.981 96.5199Z" fill="#841619"/>
<path d="M129.981 97.9327C129.883 100.237 129.393 100.962 128.095 102.662C119.249 103.326 121.106 95.1225 129.981 97.9327Z" fill="#BF2A28"/>
<path d="M115.8 115.443C115.06 115.783 113.46 117.438 112.962 118.284C112.683 118.065 109.226 117.219 107.294 114.023C108.464 113.751 110.585 112.807 111.551 112.135C113.211 111.878 114.69 114.091 115.807 115.443H115.8Z" fill="#841619"/>
<path d="M91.2256 112.127C91.3463 113.373 91.0218 115.179 91.2256 115.912C89.5349 116.796 86.9462 116.962 86.0254 117.332C86.2971 111.742 85.6782 108.969 91.2256 112.127Z" fill="#D63531"/>
<path d="M102.094 70.9717C98.8937 72.271 94.7275 73.1549 94.0558 77.355L103.037 72.3844C103.324 72.5883 107.618 73.374 108.705 76.169C112.064 84.7506 92.6067 86.2841 96.4181 92.2519C96.3879 92.2897 96.4181 92.4785 95.9426 93.1962C93.9954 90.9073 92.0406 99.5417 91.6859 101.241C89.8141 102.926 87.5801 104.875 85.0668 102.896L94.5162 88.2331C81.6629 85.2114 84.5309 102.08 74.9005 105.97C72.9004 105.736 81.9799 82.0386 83.6479 79.7119C86.0027 76.4259 99.0446 70.0728 93.8067 70.0123C77.2779 76.5694 77.7458 93.0149 70.4097 106.439C70.1682 105.207 68.2663 103.644 68.5229 101C68.5682 100.486 71.2777 93.317 71.8287 91.3001C74.9231 89.8119 77.1496 87.0697 71.8287 88.9356C73.6929 82.6505 79.1195 72.6412 85.3008 69.5364C91.9727 66.1824 95.1501 69.4684 95.7011 69.5364C96.169 69.5969 98.5465 68.5317 99.0069 68.5922C100.848 68.8414 101.339 70.5034 102.079 70.9566L102.094 70.9717Z" fill="#BF2A28"/>
<path d="M103.037 72.3919L94.0558 77.3625C94.72 73.1624 98.8861 72.271 102.094 70.9792C102.169 71.0246 102.947 72.339 103.037 72.3994V72.3919Z" fill="#841619"/>
<path d="M71.8437 91.3152C72.0173 90.6806 71.6626 89.5551 71.8437 88.9507C77.1647 87.0848 74.9382 89.827 71.8437 91.3152Z" fill="#841619"/>
<path d="M98.5465 77.5966C97.6408 88.0139 95.0143 86.3897 86.0178 87.2962C94.9464 84.0932 97.905 77.1132 98.5465 77.5966Z" fill="#841619"/>
<path d="M90.984 78.0652L91.2179 79.7196C76.1231 95.5229 77.6628 91.5796 90.984 78.0652Z" fill="#841619"/>
<path d="M104.69 76.1765L105.875 76.4107C99.6559 87.8704 94.4482 85.0451 104.69 76.1765Z" fill="#841619"/>
<path d="M91.6934 101.249C91.6632 101.407 92.0029 101.906 91.6934 104.558C88.7575 106.287 85.4517 109.324 90.75 109.762C90.75 109.883 91.0368 110.253 91.2255 112.127C85.6781 108.969 86.297 111.742 86.0253 117.332C84.946 117.762 76.9986 121.298 76.576 121.592C70.6663 115.511 71.4437 111.583 70.4324 106.454C77.7685 93.0299 77.3005 76.5844 93.8293 70.0273C99.0672 70.0878 86.0253 76.4409 83.6705 79.7269C82.0025 82.0536 72.923 105.751 74.9231 105.985C84.5536 102.095 81.6856 85.2264 94.5388 88.2481L85.0894 102.911C87.6027 104.89 89.8368 102.941 91.7085 101.256L91.6934 101.249Z" fill="#841619"/>
<path d="M89.5651 89.8948L90.2746 91.0808C84.6065 107.307 77.9421 103.696 87.4367 105.275C81.912 110.132 86.3575 114.559 80.1082 114.03C83.5574 97.5698 76.1836 113.743 74.6741 107.171C85.2555 102.261 82.2592 93.7172 89.5651 89.9023V89.8948Z" fill="#BF2A28"/>
<path d="M90.75 109.762C85.4592 109.324 88.7574 106.295 91.6934 104.558C91.2103 108.697 90.7424 109.498 90.75 109.762Z" fill="#BF2A28"/>
<path d="M74.9155 111.658C80.5685 113.524 76.508 117.317 74.2061 112.844L74.9155 111.658Z" fill="#A51E1E"/>
<path d="M79.6402 107.874C80.6667 108.357 78.0703 112.95 77.5118 110.004L79.6402 107.874Z" fill="#BF2A28"/>
<path d="M132.819 90.8392C132.729 92.705 131.574 94.994 130.457 96.5124C130.336 96.4519 130.132 96.5652 129.981 96.5124C126.925 95.4699 121.83 95.7418 121 99.5869C120.887 100.108 121.974 101.831 121.943 101.951C121.8 102.661 119.634 103.704 119.581 103.84C119.189 104.867 120.441 111.621 115.324 107.859C118.034 102.85 116.985 101.12 117.211 100.289C117.4 99.6171 122.374 94.7371 118.155 87.2811C115.634 82.8242 102.282 81.7363 115.083 77.5815C121.279 80.845 119.46 91.7154 121.936 83.0206C116.947 72.9735 113.249 77.861 109.173 76.1614C122.004 68.7507 124.457 76.1765 126.427 78.0499C126.547 78.1632 127.989 77.6571 129.498 79.2359C130.6 80.3917 132.887 89.1697 132.804 90.824L132.819 90.8392Z" fill="#BF2A28"/>
<path d="M123.128 86.5786C132.359 98.9297 129.544 93.7098 125.966 93.2036C123.845 92.9015 119.46 97.0789 122.419 92.9695C123.272 91.791 125.136 91.8439 125.257 91.5493C125.37 91.2773 121.732 89.0942 123.128 86.5786Z" fill="#841619"/>
<path d="M123.596 83.2698C126.087 82.4388 128.057 87.6663 127.378 87.9987C126.691 88.3387 122.676 83.791 123.596 83.2698Z" fill="#841619"/>
<path d="M126.2 104.558C125.747 106.348 124.728 107.73 123.838 109.287C120.124 100.849 123.196 105.132 126.2 104.558Z" fill="#BF2A28"/>
<path d="M139.906 160.859C140.419 161.063 140.691 161.818 140.85 162.279C141.491 164.137 140.125 168.141 138.487 169.372C137.333 170.241 135.604 170.407 134.231 170.793C132.668 162.732 133.249 164.931 138.012 161.335C138.133 161.244 139.831 160.927 139.899 160.859H139.906Z" fill="#895A3F"/>
<path d="M111.075 156.598C111.528 156.629 112.343 156.666 112.494 156.598C116.109 160.655 111.377 160.867 108.713 164.644C108.358 164.576 108.086 164.334 107.769 164.168L105.883 159.197C104.433 158.177 105.166 160.549 104.939 160.851C103.15 163.216 98.9842 165.278 97.8521 161.327C96.6898 157.271 97.437 158.268 102.109 156.598C102.29 156.53 105.694 155.677 105.89 155.654C109.664 155.239 109.868 156.53 111.09 156.598H111.075Z" fill="#9B5F38"/>
<path d="M107.762 164.168C105.603 163.072 106.667 161.403 104.924 160.859C105.158 160.557 104.418 158.177 105.867 159.205L107.754 164.175L107.762 164.168Z" fill="#4E362D"/>
<path d="M95.9501 93.2037C93.1878 97.434 94.818 102.254 95.4747 106.922C95.4897 107.005 94.7954 107.254 94.9992 108.576C95.0822 109.098 97.6936 111.908 97.3615 115.912C97.2709 117.007 96.1917 118.624 95.9426 119.696C94.101 119.364 91.7311 117.762 91.2179 115.912C91.0141 115.179 91.3387 113.373 91.2179 112.127C91.0368 110.253 90.75 109.883 90.7424 109.762C90.7424 109.498 91.2028 108.705 91.6859 104.558C91.9953 101.906 91.6557 101.408 91.6859 101.249C92.033 99.5567 93.9878 90.9223 95.9426 93.2037H95.9501Z" fill="#894B35"/>
<path d="M105.875 114.491C105.966 114.635 105.784 115.224 105.875 115.436L97.369 115.912C97.6936 111.915 95.0897 109.105 95.0067 108.576C94.8029 107.247 95.4897 107.005 95.4822 106.922C98.3879 112.716 104.531 112.414 105.882 114.491H105.875Z" fill="#733B23"/>
<path d="M105.875 115.443C108.079 120.497 103.324 121.026 95.9502 119.704C96.1993 118.631 97.2785 117.014 97.3691 115.919L105.875 115.443Z" fill="#9B5F38"/>
<path d="M117.219 100.305C116.985 101.136 118.034 102.865 115.332 107.874C114.419 109.558 113.113 111.032 111.551 112.134C110.592 112.814 108.464 113.759 107.294 114.023C106.698 114.159 105.867 113.706 105.875 114.499C104.524 112.422 98.3803 112.724 95.4746 106.93C94.818 102.261 93.1802 97.4415 95.9501 93.2112C96.4256 92.486 96.3878 92.3047 96.4256 92.2669C96.9765 91.587 105.988 84.9016 106.584 84.6976C117.287 81.064 119.709 106.084 110.841 93.6871C110.645 98.9977 115.453 98.0081 117.219 100.312V100.305Z" fill="#9B5F38"/>
<path d="M109.89 105.978C111.679 106.106 112.396 106.046 110.834 107.866C101.716 110.125 105.603 105.668 109.89 105.978Z" fill="#5E2D13"/>
<path d="M241.057 97.4642C243.064 102.654 244.257 104.074 244.362 110.238C244.491 117.128 242.604 124.561 242 131.526C241.977 131.821 241.623 133.029 241.057 132.946C236.702 124.841 233.811 119.893 225.456 115.919C225.411 115.896 225.615 115.269 224.513 115.443C224.754 113.781 223.894 112.935 224.513 112.134C238.506 110.858 232.671 78.8658 221.916 80.4371C209.599 84.3879 211.486 99.806 210.807 104.565C209.856 111.205 208.029 113.97 207.969 114.499C198.157 114.582 191.455 121.895 185.281 128.693C188.195 122.038 187.417 118.42 189.538 112.369C190.972 108.274 199.568 94.9034 199.938 92.9695C200.074 92.2594 198.097 85.3851 202.776 79.2511C208.905 71.2134 217.539 74.6581 219.086 74.7563C219.509 74.7865 220.46 72.0821 227.124 75.7006C232.754 78.7601 238.762 91.504 241.064 97.4642H241.057Z" fill="#0A2B48"/>
<path d="M243.419 131.05C243.079 131.42 242.725 132.584 242.475 131.526L243.419 131.05Z" fill="#0A2B48"/>
<path d="M237.743 236.076C237.215 243.91 227.079 290.859 225.924 293.556C225.486 294.576 224.905 295.497 223.562 295.21C221.396 294.455 219.124 293.994 216.943 293.322C217.728 274.784 223.147 256.608 220.724 237.972C225.705 237.731 232.868 237.02 237.736 236.084L237.743 236.076Z" fill="#FAB4A4"/>
<path d="M220.731 237.965C223.154 256.601 217.735 274.776 216.95 293.314C216.037 293.027 215.101 292.43 214.112 292.37C213.561 288.17 212.882 284.34 212.693 280.072C212.21 268.922 212.482 268.348 213.637 257.84C214.346 251.366 215.599 244.952 215.999 238.441C217.365 238.425 219.229 238.04 220.724 237.965H220.731Z" fill="#E38987"/>
<path d="M216.007 238.441C215.607 244.952 214.354 251.366 213.644 257.84C211.795 257.666 213.75 260.189 211.282 259.728C212.127 252.643 213.425 245.625 213.169 238.441C214.029 238.456 215.124 238.448 216.007 238.441Z" fill="#625554"/>
<path d="M213.169 238.441C213.418 245.625 212.12 252.643 211.282 259.728C211.063 261.572 211.063 263.596 210.806 265.402C210.082 265.152 209.546 266.127 209.388 266.588C206.059 276.317 202.625 286.1 200.406 296.155C199.176 295.913 197.47 294.266 196.149 293.79C195.153 286.553 194.814 279.301 194.263 272.027C194.044 269.164 193.968 266.361 193.787 263.513C193.266 255.158 192.881 246.796 192.368 238.441C192.308 237.519 192.074 236.937 191.893 236.076C194.278 236.552 210.973 238.395 213.161 238.441H213.169Z" fill="#E38987"/>
<path d="M210.806 265.409C210.188 269.775 209.742 274.346 208.92 278.652C207.833 284.325 205.44 289.9 204.663 295.679C204.316 295.581 202.482 296.563 200.406 296.155C202.625 286.1 206.059 276.317 209.388 266.587C209.546 266.134 210.082 265.152 210.806 265.401V265.409Z" fill="#FAB4A4"/>
<path d="M200.406 296.155C202.482 296.57 204.308 295.581 204.663 295.679C208.648 296.804 212.369 300.211 215.063 303.248C215.637 303.898 217.312 304.955 217.426 305.137C221.629 311.822 199.78 307.992 197.576 303.951C197.138 303.142 196.897 299.834 196.632 298.512C196.232 296.532 196.391 295.43 196.157 293.783C197.478 294.259 199.184 295.905 200.414 296.147L200.406 296.155Z" fill="#2B2B2B"/>
<path d="M216.95 293.314C219.131 293.994 221.403 294.448 223.569 295.203C223.531 298.021 225.335 298.202 226.407 298.988C226.543 299.086 226.777 299.909 229.245 300.876C233.501 304.51 239.071 308.362 229.245 307.501C225.924 305.295 219.871 305.091 215.539 302.772C213.607 298.814 214.241 293.277 214.12 292.363C215.108 292.431 216.044 293.027 216.958 293.307L216.95 293.314Z" fill="#2B2B2B"/>
<path d="M229.237 307.509C225.056 307.139 221.516 305.582 217.418 305.144C217.305 304.963 215.629 303.898 215.056 303.256L215.531 302.78C219.863 305.099 225.916 305.303 229.237 307.509Z" fill="#356896"/>
<path d="M200.406 182.615C201.176 183.091 206.844 193.455 211.041 197.278C219.546 192.768 218.407 190.086 212.693 183.559C221.222 182.434 229.985 183.982 238.219 180.719C238.423 181.777 241.758 190.811 242.943 198.456C244.098 205.905 245.245 222.569 244.83 229.919C244.785 230.713 245.728 231.211 244.355 234.18C242.143 234.641 239.94 235.646 237.736 236.069C232.868 237.005 225.698 237.715 220.724 237.957C219.229 238.033 217.365 238.418 215.999 238.433C215.124 238.441 214.022 238.448 213.161 238.433C210.973 238.388 194.27 236.544 191.893 236.069C189.032 235.494 183.213 233.092 179.606 232.518C181.5 215.015 184.504 197.723 186.693 180.243C189.213 180.205 199.327 181.95 200.399 182.607L200.406 182.615Z" fill="#CC4C4C"/>
<path d="M237.743 175.998C237.887 175.952 238.075 176.043 238.219 175.998C238.392 177.441 237.977 179.458 238.219 180.727C229.992 183.982 221.222 182.441 212.694 183.567C210.973 181.603 207.871 180.047 206.55 177.894C214.218 179.322 230.143 178.249 237.743 176.005V175.998Z" fill="#2B2B2B"/>
<path d="M191.425 175.046C194.859 176.829 204.723 180.115 200.406 182.615C199.335 181.958 189.221 180.213 186.7 180.251C186.972 178.068 187.84 175.884 187.644 173.626C188.429 174.056 190.58 174.608 191.425 175.046Z" fill="#0C0B10"/>
<path d="M247.2 148.085C247.132 144.882 243.162 137.071 241.532 133.891C242.158 133.573 242.807 133.279 243.419 132.946C249.344 137.796 247.985 140.312 247.2 148.085Z" fill="#1A2733"/>
<path d="M207.969 114.491C207.954 114.642 207.969 114.816 207.969 114.967C202.353 120.391 225.705 127.598 225.456 115.912C233.804 119.893 236.702 124.841 241.057 132.939C241.223 133.241 241.374 133.581 241.532 133.883C243.162 137.063 247.132 144.874 247.2 148.077C247.208 148.538 247.268 149.052 247.2 149.498C243.925 142.956 242.611 135.583 237.751 129.864C235.547 139.299 235.69 149.112 236.332 158.721C236.347 158.925 237.23 159.318 237.275 159.907C237.283 160.028 237.094 160.376 237.275 162.272C237.706 166.797 238.679 171.442 237.751 175.99C230.143 178.234 214.226 179.314 206.557 177.879C205.75 177.728 204.414 178.068 203.961 177.879C203.153 177.554 200.753 174.464 199.946 173.618C201.953 169.939 197.697 160.791 197.108 156.349C196.595 152.504 196.18 147.382 196.633 143.575C197.402 137.056 205.697 122.552 198.519 133.165C195.516 137.607 193.236 143.454 190.957 148.304C190.67 148.916 189.115 149.845 189.07 149.958C185.711 148.84 182.459 147.397 179.145 146.174C178.436 145.909 177.553 145.668 176.783 145.698C176.994 144.942 176.398 144.791 176.307 144.278C176.873 143.583 184.927 129.494 185.289 128.663C191.463 121.864 198.165 114.559 207.976 114.469L207.969 114.491Z" fill="#FFD047"/>
<path d="M247.2 149.505C247.125 150.004 244.838 154.121 244.362 154.71C243.336 155.994 239.102 159.28 237.275 159.915C237.222 159.326 236.347 158.94 236.332 158.729C235.69 149.12 235.547 139.307 237.751 129.872C242.611 135.59 243.925 142.963 247.2 149.505Z" fill="#FEB943"/>
<path d="M199.931 173.626C197.931 171.548 187.221 156.682 187.168 154.937C187.161 154.672 188.798 150.563 189.055 149.966C189.108 149.853 190.655 148.923 190.942 148.311C193.221 143.462 195.5 137.615 198.504 133.173C205.674 122.559 197.387 137.063 196.617 143.583C196.165 147.39 196.58 152.504 197.093 156.357C197.682 160.799 201.938 169.947 199.931 173.626Z" fill="#FFD047"/>
<path d="M249.563 167.952L244.362 154.71C244.838 154.121 247.125 150.004 247.2 149.505C247.268 149.059 247.208 148.546 247.2 148.085C247.985 140.312 249.344 137.796 243.419 132.946C244.347 132.44 245.11 131.828 246.257 131.526C246.332 131.738 248.212 131.76 249.095 135.077C249.132 135.213 248.136 135.991 248.619 137.917C251.163 148.055 255.578 158.147 249.563 167.96V167.952Z" fill="#9B5F38"/>
<path d="M249.562 167.952C249.283 168.413 248.951 168.972 248.619 169.373C242.272 171.662 240.74 166.185 237.275 162.279C237.094 160.383 237.283 160.028 237.275 159.915C239.109 159.28 243.336 155.994 244.362 154.71L249.562 167.952Z" fill="#894B35"/>
<path d="M189.062 149.973C188.798 150.57 187.16 154.672 187.176 154.944C187.228 156.689 197.938 171.556 199.938 173.633C200.746 174.472 203.153 177.561 203.953 177.894C204.414 178.083 205.75 177.743 206.55 177.894C207.878 180.054 210.973 181.61 212.693 183.567C218.407 190.094 219.539 192.775 211.04 197.285C206.844 193.463 201.176 183.091 200.406 182.623C204.723 180.122 194.859 176.836 191.425 175.053C191.372 174.653 191.523 174.124 191.425 173.867C190.7 172.017 169.93 161.108 179.138 146.189C182.451 147.413 185.704 148.855 189.062 149.973Z" fill="#9B5F38"/>
<path d="M179.138 146.189C169.93 161.108 190.7 172.009 191.425 173.867C191.523 174.124 191.372 174.645 191.425 175.053C190.58 174.615 188.428 174.064 187.644 173.633C179.153 168.942 172.488 163.443 173.937 152.58C174.247 150.245 176.489 146.725 176.775 145.72C177.553 145.683 178.428 145.932 179.138 146.196V146.189Z" fill="#894B35"/>
<path d="M224.513 112.127C223.894 112.935 224.754 113.781 224.513 115.436C223.494 122.514 208.157 119.032 207.969 114.96C207.969 114.809 207.954 114.635 207.969 114.484C208.029 113.955 209.856 111.19 210.807 104.55C211.969 103.334 211.901 106.288 213.169 107.625C215.66 110.254 220.89 112.452 224.513 112.119V112.127Z" fill="#E38987"/>
<path d="M207.969 114.967C208.15 119.039 223.494 122.521 224.513 115.443C225.622 115.269 225.411 115.896 225.456 115.919C225.705 127.605 202.354 120.399 207.969 114.975V114.967Z" fill="#FAB4A4"/>
<path d="M224.513 112.127C220.89 112.459 215.66 110.261 213.169 107.632C211.901 106.295 211.969 103.341 210.807 104.558C211.486 99.7985 209.599 84.3804 221.916 80.4296C232.671 78.8583 238.506 110.85 224.513 112.127Z" fill="#FAB4A4"/>
<path d="M229.471 101.717L230.181 102.427C227.486 108.697 224.475 107.632 229.471 101.717Z" fill="#CB897A"/>
<path d="M217.66 91.3152C221.856 90.4918 216.128 94.7146 216.007 92.9696L217.66 91.3152Z" fill="#274147"/>
<path d="M226.641 94.6238C227.298 93.7097 227.215 98.1969 226.166 97.9325L226.641 94.6238Z" fill="#7B5141"/>
</svg>
