<svg width="385" height="253" viewBox="0 0 385 253" fill="none" xmlns="http://www.w3.org/2000/svg">
<path class="people" d="M292.905 74.0502C292.354 75.8934 292.022 77.6535 291.962 77.8348C291.736 78.5071 291.502 78.273 291.487 78.3107C290.354 81.5817 288.286 84.6411 288.181 88.2445C286.045 87.6477 280.339 79.9802 285.343 91.795C281.116 109.358 279.622 106.775 264.074 107.168C261.969 107.221 257.251 107.221 255.093 107.168C251.931 107.085 242.089 108.512 244.693 102.907C244.745 102.786 246.557 101.744 246.579 101.019C250.014 100.384 253.651 99.3869 252.723 94.8695C252.21 92.3691 249.727 93.0565 249.417 91.795C251.583 88.9244 253.583 64.7283 254.851 64.1164C256.663 63.2477 289.743 64.7812 295.026 64.1164C295.977 64.7887 293.358 72.5167 292.898 74.0502H292.905Z" fill="#DCDCDD"/>
<path class="people" d="M324.574 86.3484C326.861 88.6071 331.291 93.8648 333.08 95.3379C332.446 102.681 325.118 98.8657 323.155 101.253C321.842 102.854 323.314 105.936 323.155 107.168C322.914 109.079 322.695 108.512 322.68 108.588C321.14 109.071 321.714 111.738 320.793 112.373C320.31 111.247 318.635 111.028 317.487 110.008C314.446 107.311 311.238 102.786 308.506 99.5984C302.649 92.7543 296.883 85.5401 291.494 78.3107C291.502 78.2805 291.736 78.5071 291.97 77.8348C303.691 75.1228 315.344 76.6639 307.57 70.2655C307.645 70.2353 307.615 68.868 308.279 68.8453C309.472 68.8075 321.012 82.813 324.589 86.3484H324.574Z" fill="#A6D33F"/>
<path class="people" d="M307.562 70.2655C315.344 76.6639 303.683 75.1229 291.962 77.8348C292.022 77.6535 292.354 75.8934 292.905 74.0502C297.728 73.4458 302.989 71.9048 307.555 70.2655H307.562Z" fill="#F1F3F3"/>
<path class="people" d="M77.8497 105.272C77.6912 104.811 77.4195 104.055 76.9062 103.851C78.4837 102.378 77.6836 101.744 77.8497 101.487C80.8913 96.9167 82.8385 91.5381 85.6461 86.8243C82.0158 87.1642 64.5059 88.1009 63.4341 88.7128C62.0605 89.506 49.6827 112.826 47.5997 116.15C38.3239 118.839 42.4674 112.229 45.7128 107.636C48.377 103.859 53.1093 103.647 49.4941 99.5909C50.4601 99.1527 58.3925 83.8102 60.1284 83.0321C60.4303 82.8961 63.9021 82.7677 65.5625 82.5562C67.8267 82.2691 84.3102 80.6676 85.1782 81.136C85.7744 81.4608 84.1216 84.1501 90.6123 83.7346C88.5292 87.2096 85.9254 90.5938 83.9933 94.1443C81.7517 98.2613 79.9177 104.871 77.8497 105.264V105.272Z" fill="#F1F3F3"/>
<path class="people" d="M77.8497 101.487L73.359 101.487L75.0118 104.327C70.2494 107.931 69.6683 105.732 71.2306 113.785C68.9664 114.42 62.0228 115.281 58.9434 115.674C54.6716 116.218 47.5468 117.222 47.5997 116.15C49.6827 112.818 62.0605 89.4985 63.4341 88.7128C64.5134 88.0934 82.0158 87.1567 85.6461 86.8243C82.8385 91.5457 80.8913 96.9167 77.8497 101.487Z" fill="#164275"/>
<path class="people" d="M77.8497 101.487C77.6761 101.744 78.4836 102.378 76.9062 103.851C76.8383 103.919 75.1326 104.237 75.0194 104.327L73.3665 101.487H77.8572L77.8497 101.487Z" fill="#1D82C9"/>
<path class="people" d="M343.481 2.14177C347.398 4.78574 347.322 7.74698 351.753 6.40233C354.583 11.2672 357.421 15.8526 356.719 22.251C356.477 24.4644 354.054 28.3624 353.881 29.1102C353.375 28.725 352.817 27.8034 352.462 27.2217C346.522 17.4315 348.583 32.0262 346.084 32.8949H343.722C340.175 11.0708 337.322 17.3106 329.307 14.9159C326.906 14.1983 326.371 13.4051 325.525 11.1313C320.657 -1.96771 336.877 1.70362 338.997 1.6734C339.828 1.6583 338.107 -1.48425 343.488 2.14932L343.481 2.14177Z" fill="#0C0B10"/>
<path class="people" d="M342.062 232.061C342.115 233.089 341.918 234.388 342.062 234.902H334.024C334.054 234.811 334.039 233.104 334.024 233.013C334.793 233.074 335.005 232.605 335.911 232.537C338.129 232.371 339.375 233.323 342.054 232.061H342.062Z" fill="#562C40"/>
<path class="people" d="M382.244 99.5984C381.278 101.525 378.546 103.814 378.463 104.093C377.806 106.397 379.119 120.199 378.463 122.541C378.41 122.729 377.119 123.092 377.044 123.251C362.809 126.408 336.778 126.816 323.631 120.886C322.408 120.335 321.857 119.05 321.744 118.998C320.74 116.082 322.197 111.965 322.687 108.588C322.695 108.512 322.921 109.079 323.163 107.168C325.918 108.709 341.103 108.611 342.545 106.458C346.545 100.46 337.05 98.5862 333.095 95.3379C331.307 93.8724 326.869 88.6146 324.589 86.3484C328.635 73.7253 327.91 58.4885 337.82 48.5019C337.956 48.5623 338.235 47.7842 340.182 48.5019C340.318 48.5547 341.118 50.1487 342.311 50.3904C348.235 51.6293 354.696 48.6605 358.145 43.7654C361.149 46.4698 366.666 49.0155 371.851 54.8852C381.286 65.5592 388.916 86.2804 382.252 99.5909L382.244 99.5984Z" fill="#5A1019"/>
<path class="people" d="M376.568 123.727C373.798 159.979 367.195 195.884 363.338 232.061C353.119 236.276 356.281 216.968 350.575 215.034C348.424 201.633 346.349 188.254 346.318 174.589H345.375C345.752 188.534 341.556 222.558 342.069 232.069C339.39 233.323 338.145 232.379 335.926 232.545C335.118 226.192 332.756 219.823 333.088 213.387C333.337 208.492 340.975 180.239 343.013 172.7C343.76 169.951 345.277 170.661 345.375 170.336C346.054 168.13 346.077 150.4 346.318 145.264C338.318 168.561 334.454 192.931 329.307 216.938C329.291 216.885 329.133 217.315 328.831 215.993C326.763 206.883 324.884 198.324 323.631 189.025C323.314 186.661 322.929 184.304 322.687 181.932C321.593 171.348 321.087 161.837 321.269 151.178C321.427 141.826 322.454 132.58 323.155 123.266C335.586 130.049 359.587 131.847 372.546 127.526C377.353 125.925 375.157 125.834 376.561 123.742L376.568 123.727Z" fill="#265174"/>
<path class="people" d="M335.918 232.53C335.005 232.598 334.801 233.058 334.031 233.006C333.895 232.175 331.488 226.35 329.307 216.923C334.454 192.915 338.318 168.546 346.318 145.248C346.077 150.385 346.047 168.115 345.375 170.321C345.277 170.653 343.752 169.936 343.013 172.685C340.975 180.224 333.337 208.477 333.088 213.372C332.756 219.808 335.118 226.177 335.926 232.53H335.918Z" fill="#164275"/>
<path class="people" d="M377.044 123.251C376.734 123.893 376.591 123.696 376.568 123.727C375.157 125.819 377.361 125.91 372.553 127.511C359.594 131.832 335.594 130.042 323.163 123.251C323.231 122.344 323.45 121.74 323.638 120.886C336.786 126.816 362.809 126.408 377.051 123.251L377.044 123.251Z" fill="#164275"/>
<path class="people" d="M363.338 232.061C363.353 232.53 363.315 233.013 363.338 233.481L354.832 233.957C354.696 232.99 352.303 225.791 350.575 215.034C356.281 216.976 353.111 236.276 363.338 232.061Z" fill="#164275"/>
<path class="people" d="M320.793 112.373C320.325 112.697 313.117 115.137 309.925 112.848C313.08 113.37 315.019 111.7 317.487 110.008C318.642 111.028 320.31 111.247 320.793 112.373Z" fill="#193C5B"/>
<path class="people" d="M317.487 110.008C315.019 111.693 313.08 113.37 309.925 112.848C308.068 111.519 308.151 110.31 307.087 108.588C307.208 105.4 306.913 102.635 308.506 99.5984C311.238 102.786 314.446 107.311 317.487 110.008Z" fill="#9B5F38"/>
<path class="people" d="M358.138 43.7729C354.688 48.6605 348.228 51.6369 342.303 50.398C341.111 50.1487 340.311 48.5547 340.175 48.5094C340.582 48.5623 340.605 48.3885 340.65 48.0335C344.53 51.8106 355.398 47.7691 356.719 42.8287C356.779 42.8891 357.451 43.1535 358.138 43.7729Z" fill="#5C80B6"/>
<path class="people" d="M323.155 107.168C323.314 105.936 321.842 102.854 323.155 101.253C325.118 98.8657 332.446 102.681 333.08 95.3379C337.035 98.5862 346.53 100.452 342.53 106.458C341.096 108.611 325.91 108.709 323.148 107.168L323.155 107.168Z" fill="#9B5F38"/>
<path class="people" d="M352.937 37.6238C353.187 38.7343 355.768 41.8768 356.719 42.8287C355.398 47.7691 344.53 51.8106 340.65 48.0335C340.779 46.9004 340.462 45.2913 340.65 44.7248C340.696 44.5812 340.597 44.3848 340.65 44.2489C345.669 44.264 349.481 38.8401 352.937 37.6238Z" fill="#894B35"/>
<path class="people" d="M353.881 29.1102C353.413 31.1574 352.847 33.6352 352.937 35.7353C352.96 36.3774 352.832 37.1555 352.937 37.6238C349.481 38.8401 345.669 44.264 340.65 44.2489C341.133 43.0402 351.79 39.2026 352.47 27.2217C352.824 27.8034 353.383 28.7325 353.888 29.1102H353.881Z" fill="#5E2D13"/>
<path class="people" d="M352.462 27.2141C351.783 39.2027 341.126 43.0326 340.643 44.2413C340.59 44.3773 340.688 44.5737 340.643 44.7172C330.982 45.1025 329.654 39.7465 328.356 31.9431C328.22 31.1348 327.895 29.6995 327.88 29.5786C327.382 24.6986 326.884 19.3804 329.299 14.9159C337.314 17.3106 340.167 11.0708 343.715 32.8949H346.077C348.575 32.0262 346.522 17.4239 352.454 27.2217L352.462 27.2141Z" fill="#9B5F38"/>
<path class="people" d="M331.427 23.9054C332.861 22.6061 331.299 27.3728 330.484 32.419C327.873 30.0923 329.42 26.2019 331.427 23.9054Z" fill="#5E2D13"/>
<path class="people" d="M342.062 234.902C342.16 235.249 345.186 237.009 344.424 241.285C345.375 243.634 353.979 241.119 354.824 237.734C357.549 237.123 361.459 238.309 363.33 235.846C363.376 236.141 365.542 236.571 365.217 241.051C364.553 250.335 338.462 249.912 342.764 241.995C336.137 247.245 324.846 247.918 318.423 242.939C322.484 241.874 332.492 239.276 334.024 234.894H342.062V234.902Z" fill="#092150"/>
<path class="people" d="M366.644 242.471C366.764 244.775 367.761 246.029 366.168 248.144C341.616 252.352 341.737 246.475 340.409 246.256C339.073 246.037 314.053 252.518 316.536 244.367C316.71 244.118 316.929 243.732 317.012 243.423C317.389 243.325 317.744 243.128 318.431 242.947C324.854 247.925 336.144 247.253 342.771 242.003C338.469 249.919 364.56 250.342 365.225 241.058C365.889 241.391 365.61 241.912 366.644 242.479V242.471Z" fill="#0364C1"/>
<path class="people" d="M366.168 248.144C367.285 251.453 343.601 251.959 341.828 250.985C340.65 250.335 341.564 248.696 340.409 248.144C339.088 247.517 309.389 254.777 316.536 244.359C314.053 252.51 339.065 246.029 340.409 246.248C341.737 246.467 341.616 252.352 366.168 248.137V248.144Z" fill="#164275"/>
<path class="people" d="M363.338 233.481C363.376 234.244 363.225 235.128 363.338 235.846C361.458 238.309 357.556 237.123 354.832 237.734C354.953 237.251 354.93 234.645 354.832 233.95L363.338 233.474V233.481Z" fill="#562C40"/>
<path class="people" d="M248.949 92.9734C250.693 93.3511 251.395 93.6911 252.731 94.862C253.651 99.3794 250.021 100.384 246.587 101.011C246.527 101.019 246.164 100.006 245.878 100.067C236.255 102.144 217.537 117.298 221.537 99.1225C222.345 98.5408 223.62 97.302 223.9 96.2822C234.413 97.5815 235.009 95.6778 240.911 93.9177C242.051 93.5777 242.745 91.6363 248.949 92.9734Z" fill="#9B5F38"/>
<path class="people" d="M288.181 88.2445C289.992 88.7506 289.969 86.8696 291.487 87.7686C291.071 88.6373 289.72 92.5277 289.124 94.1519C289.026 94.4163 287.962 94.4163 287.705 95.0961C287.132 96.5994 288.868 115.5 265.493 109.525C265.063 108.671 264.64 107.931 264.074 107.16C279.622 106.767 281.116 109.351 285.343 91.7874C280.331 79.9802 286.045 87.6401 288.181 88.2369L288.181 88.2445Z" fill="#894B35"/>
<path class="people" d="M244.7 56.0712C244.753 56.0863 244.353 56.2071 245.644 56.5471C243.274 61.9785 234.677 63.1872 229.575 62.6962C229.953 60.0296 237.198 61.8879 241.394 55.1269C242.3 55.6104 243.772 55.7992 244.7 56.0712Z" fill="#9B5F38"/>
<path class="people" d="M221.537 99.1225C217.537 117.298 236.262 102.144 245.878 100.067C246.164 100.006 246.527 101.026 246.587 101.011C246.557 101.736 244.753 102.779 244.7 102.9C244.73 102.242 242.76 102.288 242.338 102.424C240.496 103.02 219.59 118.235 206.42 105.732C204.782 104.184 204.48 102.907 203.582 101.004C204.722 101.192 205.748 101.729 206.888 101.948C211.137 102.779 218.065 101.615 221.537 99.1074V99.1225Z" fill="#894B35"/>
<path class="people" d="M237.138 50.8739C238.141 52.77 239.5 54.1297 241.394 55.1344C237.206 61.8955 229.953 60.0371 229.575 62.7038C227.032 62.462 219.726 60.785 222.013 57.0305C223.613 56.3205 226.971 55.3006 226.737 53.2459C228.571 53.9711 235.319 52.0297 237.138 50.8814V50.8739Z" fill="#894B35"/>
<path class="people" d="M254.625 188.534C254.648 188.949 254.217 189.01 254.149 189.478C252.678 200.001 252.127 204.655 249.893 215.495C244.617 213.886 238.526 209.557 234.292 206.037C234.292 205.962 233.907 206.498 233.817 204.617C235.56 204.927 234.383 202.577 234.76 201.066C234.881 200.575 238.202 191.986 238.541 191.609C239.379 190.672 242.61 190.762 244.21 190.423C247.47 189.735 251.055 189.327 254.61 188.534H254.625Z" fill="#9B5F38"/>
<path class="people" d="M244.225 190.43C242.625 190.77 239.394 190.679 238.557 191.616C238.217 191.994 234.896 200.583 234.775 201.074C234.398 202.585 235.575 204.934 233.832 204.624C233.628 200.062 233.545 195.469 233.356 190.906C236.843 190.959 240.662 189.894 244.225 190.43Z" fill="#894B35"/>
<path class="people" d="M269.275 183.805C266.739 186.396 258.255 187.726 254.625 188.534C251.078 189.327 247.485 189.735 244.225 190.423C240.662 189.879 236.843 190.951 233.356 190.898C232.232 190.883 230.609 190.921 230.051 190.898C225.13 190.672 214.216 188.655 208.782 187.59C206.895 187.22 205.016 186.585 203.114 186.17C202.676 167.662 205.34 149.486 208.314 131.296C224.843 136.41 242.874 134.401 258.889 128.455C262.331 139.991 267.546 170.381 269.29 183.805H269.275Z" fill="#356896"/>
<path class="people" d="M258.882 128.455C242.866 134.401 224.835 136.41 208.307 131.296C208.533 129.906 208.774 128.448 208.782 127.035C227.13 132.384 252.927 126.068 256.519 126.091C257.712 126.091 257.636 124.278 258.882 128.455Z" fill="#265174"/>
<path class="people" d="M222.013 57.023C219.726 60.785 227.032 62.4545 229.575 62.6962C234.685 63.1872 243.274 61.9785 245.644 56.5471C247.115 56.9323 256.685 57.7104 256.987 58.6774C250.338 63.3081 253.576 66.5715 252.731 71.9199C251.629 78.9679 249.168 86.1066 248.949 92.9734C242.745 91.6363 242.059 93.5777 240.911 93.9177C228.375 99.2509 222.065 83.9386 218.933 74.5185C218.496 78.5676 224.601 93.7364 223.9 96.2822C223.62 97.2944 222.345 98.5333 221.537 99.1225C218.058 101.631 211.137 102.794 206.888 101.963C208.858 101.17 204.865 96.1537 204.05 90.8431C203.197 85.2379 205.152 78.4014 202.631 80.1993C204.94 70.1824 211.431 61.0569 220.828 56.5471C221.364 56.2902 221.681 57.1665 222.013 57.023Z" fill="#F9E7AB"/>
<path class="people" d="M244.7 102.907C242.096 108.505 251.931 107.085 255.1 107.168C255.697 113.128 259.931 122.76 256.519 126.091C252.927 126.076 227.13 132.391 208.782 127.035C208.729 127.02 209.024 126.982 207.839 126.559C209.446 125.056 216.677 127.753 217.529 127.504C217.914 127.39 221.13 122.646 222.73 121.355C228.488 116.701 243.772 108.973 242.345 102.431C242.768 102.295 244.738 102.25 244.708 102.907H244.7Z" fill="#F9E7AB"/>
<path class="people" d="M207.831 126.567C206.125 125.97 204.623 126.151 203.574 124.437L206.412 105.748C219.59 118.25 240.489 103.036 242.33 102.439C243.757 108.981 228.473 116.709 222.715 121.362C221.115 122.654 217.899 127.398 217.514 127.511C216.662 127.76 209.431 125.064 207.824 126.567H207.831Z" fill="#F9E7AB"/>
<path class="people" d="M206.888 101.963C205.748 101.736 204.722 101.207 203.582 101.019C200.103 93.6231 200.835 88.0254 202.638 80.2068C205.159 78.4089 203.197 85.2455 204.057 90.8507C204.865 96.1613 208.865 101.177 206.895 101.97L206.888 101.963Z" fill="#F9E7AB"/>
<path class="people" d="M240.919 93.9177C235.017 95.6778 234.421 97.589 223.907 96.2822C224.609 93.7364 218.503 78.5676 218.941 74.5185C222.073 83.9386 228.383 99.2434 240.919 93.9177Z" fill="#F9E7AB"/>
<path class="people" d="M230.043 190.906C231.273 197.659 231.62 237.1 232.405 239.396C232.73 240.341 236.33 242.592 236.662 246.732C236.745 247.744 236.609 248.786 236.662 249.806C235.734 251.755 213.175 252.805 212.088 249.806C211.19 246.52 216.888 245.969 221.537 242.947C222.413 242.38 224.911 241.716 224.843 240.348C224.767 238.732 218.05 230.513 213.024 210.305C212.133 206.724 211.318 203.053 210.661 199.427C209.952 195.507 209.695 191.488 208.774 187.597C214.209 188.662 225.122 190.679 230.043 190.906Z" fill="#603813"/>
<path class="people" d="M249.9 215.502C247.878 225.338 242.3 241.534 246.119 242.939C264.806 253.039 242.7 252.495 239.266 251.453C237.221 250.833 237.5 248.212 237.138 246.248C236.556 243.068 236.949 240.363 236.662 238.445C236.624 238.18 235.273 237.274 235.243 237.024C234.3 229.062 234.722 214.989 234.3 206.037C238.534 209.557 244.625 213.893 249.9 215.495V215.502Z" fill="#603813"/>
<path class="people" d="M242.806 14.9159C241.228 24.1925 246.202 31.8222 247.062 40.6984L248.715 40.9326C253.04 34.791 251.342 42.6398 264.784 40.9326C267.252 36.5058 264.512 34.4359 264.55 34.0733C264.61 33.4388 268.859 31.3916 267.388 22.2435C266.822 18.7232 263.984 17.2275 264.082 14.9084C270.195 17.0613 266.64 20.9064 270.701 21.5334C270.686 21.692 270.709 21.8507 270.701 22.0093C270.497 26.1792 271.252 27.6296 271.176 27.9242C270.875 29.1178 269.493 27.7429 269.29 28.4002C269.191 28.725 271.561 33.2726 270.708 35.0252C267.35 32.4114 265.818 43.0251 263.855 43.7805C261.418 44.7097 252.225 42.7682 251.568 42.8362C250.255 42.9646 243.047 48.4716 242.353 45.6766C246.715 38.5077 240.202 28.4908 239.991 27.2292C239.281 23.0518 241.085 18.3077 239.515 14.4551C240.406 14.5004 241.183 14.8479 242.821 14.931L242.806 14.9159Z" fill="#452111"/>
<path class="people" d="M216.337 14.44C213.182 16.7289 213.227 19.1991 209.25 20.8233C214.744 19.5768 206.586 27.8487 210.435 36.672C211.612 36.7475 209.476 24.5853 218.231 14.9084C222.179 15.1274 224.201 13.541 226.028 13.4882C230.662 13.3522 233.304 13.9565 234.3 13.9641V24.3738C231.077 24.268 228.443 26.5192 226.262 28.6343C222.918 27.1613 227.273 23.2784 226.262 17.9905C224.85 15.5127 216.284 31.588 218.699 37.1479C218.677 37.1706 218.805 37.6767 218.224 37.6238C218.209 37.5181 216.911 36.8382 216.805 35.9695C216.669 34.8514 218.073 30.5455 217.28 26.5116C215.718 22.3719 212.79 35.4784 216.805 44.4906C213.25 46.3414 213.363 37.3896 204.518 40.9401C203.522 39.9958 201.303 38.9005 200.737 37.8656C198.729 34.2018 198.087 21.9413 201.446 17.7563C207.107 23.437 198.993 10.2701 207.114 18.2322C211.831 11.2672 210.79 14.0774 216.329 14.4475L216.337 14.44Z" fill="#5E2D13"/>
<path class="people" d="M218.231 37.6238C218.835 41.2272 218.156 41.0836 220.118 45.1931C218.473 47.3838 210.125 47.0741 207.831 45.669C208.767 44.5133 209.25 44.5812 209.25 44.483C209.25 44.1733 208.85 45.042 204.525 40.9326C213.378 37.3745 213.258 46.3263 216.812 44.483C212.79 35.4709 215.718 22.3643 217.288 26.504C218.088 30.5455 216.677 34.8514 216.812 35.9619C216.918 36.8306 218.209 37.5105 218.231 37.6163V37.6238Z" fill="#452111"/>
<path class="people" d="M218.231 14.9159C209.469 24.5928 211.605 36.7551 210.435 36.6796C206.593 27.8562 214.752 19.592 209.25 20.8308C213.235 19.1991 213.182 16.7365 216.337 14.4476C216.579 14.4627 216.729 14.8404 218.224 14.9235L218.231 14.9159Z" fill="#452111"/>
<path class="people" d="M238.081 13.9716C236.602 15.4069 237.636 22.2737 238.081 25.8015C236.957 25.1141 235.658 24.4266 234.3 24.3813V13.9716C235.56 13.9792 236.821 13.9414 238.081 13.9716Z" fill="#452111"/>
<path class="people" d="M239.5 14.44C241.07 18.2926 239.266 23.0291 239.975 27.2141C239.236 26.8515 238.798 26.2245 238.089 25.794C237.643 22.2737 236.609 15.4069 238.089 13.9641C239.1 13.9867 239.13 14.4173 239.508 14.44H239.5Z" fill="#5E2D13"/>
<path class="people" d="M255.1 10.6553C255.478 10.6402 258.482 11.0331 258.882 11.1313C260.172 11.4334 261.969 12.9745 263.138 13.4957L264.082 14.9159C263.984 17.2275 266.822 18.7308 267.388 22.251C268.859 31.3992 264.618 33.4463 264.55 34.0809C264.512 34.4511 267.252 36.5133 264.784 40.9401C251.334 42.6474 253.04 34.7985 248.715 40.9401L247.062 40.7059C246.21 31.8297 241.236 24.2 242.806 14.9235C243.138 14.9386 243.266 12.914 248.949 14.4475C248.61 17.2804 250.851 22.9838 249.893 25.5673C249.795 25.8242 247.387 25.1518 247.53 29.8279C254.406 27.1915 246.64 32.7136 249.183 34.7985C257.101 30.961 249.425 36.181 256.036 35.9846C255.025 30.3416 255.855 16.7969 249.417 14.4627C251.349 11.7431 251.772 10.8064 255.085 10.678L255.1 10.6553Z" fill="#5E2D13"/>
<path class="people" d="M248.949 14.44C249.1 14.4778 249.289 14.3947 249.425 14.44C255.863 16.7742 255.033 30.3189 256.044 35.9619C249.432 36.1583 257.108 30.9459 249.191 34.7759C246.647 32.6909 254.414 27.1688 247.538 29.8052C247.395 25.1367 249.81 25.8015 249.9 25.5447C250.851 22.9611 248.617 17.2577 248.957 14.4249L248.949 14.44Z" fill="#452111"/>
<path class="people" d="M261.953 15.8602C265.697 15.3767 259.938 19.7355 259.825 30.2887C257.463 33.673 252.768 20.1736 261.953 15.8602Z" fill="#452111"/>
<path class="people" d="M258.64 31.9506L261.237 32.1848C260.784 39.603 253.999 37.6616 258.64 31.9506Z" fill="#452111"/>
<path class="people" d="M226.262 28.6343C221.326 33.4086 221.862 36.1054 221.537 36.4378C221.167 36.8155 220.669 35.3727 218.699 37.1479C216.284 31.588 224.85 15.5051 226.262 17.9905C227.273 23.2784 222.918 27.1688 226.262 28.6343Z" fill="#452111"/>
<path class="people" d="M234.3 24.3813C235.658 24.4266 236.957 25.1141 238.081 25.8015C238.791 26.2321 239.236 26.8591 239.968 27.2217C240.179 28.4832 246.7 38.5001 242.33 45.669C242.142 45.9863 237.44 50.6775 237.13 50.8739C235.319 52.0297 228.571 53.9635 226.73 53.2383C226.451 53.125 222.926 49.4839 222.473 48.9778C222.322 48.8116 220.209 45.3971 220.111 45.1931C218.141 41.0836 218.82 41.2272 218.224 37.6238C218.797 37.6767 218.669 37.1706 218.699 37.1479C220.662 35.3802 221.167 36.8155 221.537 36.4378C221.862 36.1054 221.326 33.4086 226.262 28.6343C228.443 26.5267 231.077 24.268 234.3 24.3738V24.3813Z" fill="#9B5F38"/>
<path class="people" d="M235.953 44.2489C237.206 46.6284 229.537 51.0174 226.737 46.8475C226.843 45.0043 231.039 50.9721 235.953 44.2489Z" fill="#733B23"/>
<path class="people" d="M228.39 31.4747L227.915 38.5681C225.688 36.8004 226.292 33.3104 228.39 31.4747Z" fill="#5E2D13"/>
<path class="people" d="M236.896 35.2594L237.606 35.9695C234.632 40.6002 235.651 35.2971 236.896 35.2594Z" fill="#452111"/>
<path class="people" d="M58.9434 118.522C59.8717 126.136 62.1888 133.879 62.7247 142.884C63.7511 160.047 62.4303 178.162 59.8868 195.159C58.7472 202.781 55.5773 217.693 53.7432 225.67C53.23 227.906 51.8715 227.846 51.3809 231.585C49.6978 229.523 45.3203 231.804 42.3995 230.641C38.8145 215.004 40.8221 198.709 38.8522 182.861C37.2673 198.566 36.2031 214.309 33.886 229.931C33.7804 230.626 32.3086 231.268 31.9992 233.481C28.7764 233.927 22.9649 232.673 23.9612 235.846H23.4857C22.1347 229.704 20.8743 223.404 20.1799 217.157C17.6063 194.033 14.7609 170.955 12.142 147.847C11.6816 143.745 11.1608 139.643 10.723 135.549C10.1494 130.178 10.2098 124.807 9.77962 119.466C12.625 120.864 15.644 121.755 18.761 122.306C24.5046 123.326 36.4748 123.832 42.158 123.251C47.7355 122.684 53.8414 119.662 58.9359 118.522H58.9434Z" fill="#3C0F11"/>
<path class="people" d="M51.3809 236.79C51.63 237.674 53.4414 239.079 54.2187 239.631C57.0037 241.595 60.9057 242.048 64.1436 242.939C72.6269 255.086 48.4072 248.786 46.4223 249.564C45.5468 249.904 45.5241 251.959 44.0599 252.405C40.1806 253.583 23.9084 251.468 22.0819 247.676C25.7273 249.534 41.5768 251.528 44.0599 250.516C44.9958 250.131 44.5354 248.537 45.4788 248.152C47.8261 247.192 67.0267 251.483 64.8606 245.311C57.8264 248.416 45.5619 247.079 40.5202 240.582C41.1164 238.664 40.807 235.891 42.8825 234.909C44.0826 237.402 49.1544 237.697 51.3885 236.798L51.3809 236.79Z" fill="#092150"/>
<path class="people" d="M51.3809 231.585C51.2752 232.394 51.2526 236.344 51.3809 236.79C49.1469 237.682 44.0675 237.387 42.875 234.902C41.9919 233.066 42.6938 231.918 42.3995 230.641C45.3128 231.804 49.6903 229.531 51.3809 231.585Z" fill="#841619"/>
<path class="people" d="M32.0067 233.481C31.969 233.738 31.969 238.429 32.0067 238.686C28.2708 238.732 26.1952 239.313 23.9687 235.846C22.9725 232.673 28.7764 233.92 32.0067 233.481Z" fill="#841619"/>
<path class="people" d="M23.9687 235.846C26.1952 239.313 28.2632 238.732 32.0067 238.686C32.2935 240.726 36.2559 242.554 37.9164 243.415C38.7315 243.838 39.939 242.886 40.0447 242.939C54.3169 249.904 26.7613 252.949 21.6139 241.519C21.8479 239.865 21.9536 236.843 23.5008 235.846H23.9763H23.9687Z" fill="#092150"/>
<path class="people" d="M22.0743 247.668C20.6781 244.775 21.1611 244.684 21.5989 241.519C26.7537 252.949 54.3018 249.904 40.0296 242.939C38.7164 240.99 40.4598 240.711 40.5051 240.575C45.5468 247.071 57.8113 248.409 64.8455 245.304C67.0191 251.476 47.8185 247.185 45.4638 248.144C44.5279 248.529 44.9883 250.123 44.0448 250.509C41.5617 251.521 25.7122 249.527 22.0668 247.668H22.0743Z" fill="#0364C1"/>
<path class="people" d="M44.2939 57.023C46.226 60.2184 49.6903 61.0645 49.962 61.2836C56.4226 66.3675 61.0642 75.7196 65.5625 82.5713C63.9021 82.7828 60.4302 82.9112 60.1284 83.0472C58.3925 83.8253 50.4601 99.1679 49.4941 99.606C49.3431 99.674 48.5355 99.6362 48.0751 99.606L49.4941 98.42C49.7356 96.8336 33.7728 79.2701 31.2973 77.3664C25.0405 72.562 19.0931 71.4817 12.1571 68.377C12.2476 68.1579 12.6325 66.2316 12.1571 66.4884C12.4363 66.2391 13.4099 64.7132 13.576 64.5999C14.0062 64.3052 21.946 60.7774 23.0253 60.3393C23.9461 59.9691 26.5349 59.8029 28.2255 58.9191C28.7387 60.7699 31.1161 62.3714 32.9501 62.7038C40.324 64.0333 45.0788 63.5045 42.875 58.4432C42.7844 58.2317 42.9656 57.6349 42.875 57.4989C42.8674 56.7057 43.6977 57.1665 44.2939 57.023Z" fill="#0170B2"/>
<path class="people" d="M12.1495 68.377C12.0589 68.596 11.4627 69.7518 11.2061 70.2655C10.6627 71.3684 9.87019 72.426 9.31923 73.5742C6.76821 78.8697 4.70021 82.458 4.59455 88.947C4.19454 112.599 26.8896 107.53 43.3505 110.711C40.5806 116.18 27.2141 117.343 26.5726 118.046C24.731 120.04 30.6406 122.714 18.7761 122.306C15.659 121.755 12.6401 120.864 9.79471 119.466C9.76452 119.111 9.3947 119.066 9.31923 118.046C9.07771 114.745 9.88528 112.864 9.79471 112.607C9.52301 111.851 1.66616 111.179 0.345364 101.963C-1.30752 90.4428 3.24356 74.4279 12.1646 66.4809C12.6401 66.2316 12.2552 68.1503 12.1646 68.3694L12.1495 68.377Z" fill="#164275"/>
<path class="people" d="M20.663 77.3664C27.0783 81.2644 29.0255 81.3248 29.4104 81.627C30.1048 82.1709 38.2031 93.5777 40.0447 95.8213C39.3202 98.3671 40.7617 98.08 40.9881 98.1858C41.4485 98.4049 42.8373 97.7477 42.875 98.6617C42.6788 98.6844 39.2749 99.5456 39.0937 99.606C38.4447 98.0574 38.173 99.1301 37.6748 99.1301C37.4031 98.4351 38.5881 97.8836 37.9088 97.2415C37.0107 96.3879 15.1911 88.3956 14.5118 89.438C14.7383 93.4191 15.4779 93.2378 15.4553 93.4569C15.4326 93.6533 13.5231 96.8109 13.5684 97.0073C13.9307 98.6995 31.4709 105.151 34.837 104.342C35.9691 108.301 40.1353 106.239 41.924 103.867C43.6675 104.418 42.6033 106.08 44.7618 107.175C45.0864 107.341 45.3581 107.583 45.7053 107.651C42.4674 112.244 38.3239 118.854 47.5921 116.165C47.5393 117.237 54.664 116.24 58.9359 115.689C59.0113 116.618 58.8227 117.608 58.9359 118.529C53.8338 119.677 47.7355 122.692 42.158 123.258C36.4823 123.84 24.5046 123.334 18.761 122.314C30.6256 122.722 24.7159 120.048 26.5575 118.053C27.199 117.358 40.5655 116.187 43.3354 110.718C26.8669 107.538 4.17944 112.614 4.57946 88.9546C4.68512 82.4655 6.75311 78.8773 9.30413 73.5818C10.6174 80.3201 18.8441 83.372 19.7045 82.3371C19.0403 79.5345 18.6856 79.391 20.6479 77.3664H20.663Z" fill="#21558D"/>
<path class="people" d="M48.0751 99.5984C46.8525 99.5229 46.6487 98.2387 42.875 98.6542C42.8372 97.7477 41.4485 98.3973 40.9881 98.1782C42.2184 96.7203 40.7089 96.6221 40.0447 95.8138C38.2031 93.5702 30.1048 82.1709 29.4104 81.6195C29.0255 81.3173 27.0858 81.2569 20.663 77.3589C17.3044 75.3193 13.4778 73.8084 11.2136 70.2655C11.4702 69.7443 12.0665 68.596 12.1571 68.377C19.0931 71.4817 25.0405 72.562 31.2973 77.3664C33.7728 79.2701 49.7356 96.8336 49.4941 98.42L48.0751 99.606V99.5984Z" fill="#356896"/>
<path class="people" d="M20.663 77.3664C18.7007 79.3834 19.0554 79.5345 19.7196 82.3371C18.8591 83.3796 10.6325 80.3201 9.31923 73.5818C9.87019 72.4336 10.6627 71.3684 11.2061 70.273C13.4778 73.816 17.2968 75.3268 20.6554 77.3664H20.663Z" fill="#356896"/>
<path class="people" d="M37.6748 99.1225C38.173 99.1225 38.4371 98.0423 39.0937 99.5984C34.4219 101.275 33.6747 100.271 34.837 104.327C31.4709 105.136 13.9307 98.6919 13.5684 96.9922C13.5231 96.7958 15.4402 93.6457 15.4553 93.4418C22.1347 94.5145 31.4482 99.1301 37.6673 99.115L37.6748 99.1225Z" fill="#356896"/>
<path class="people" d="M37.6748 99.1225C31.4482 99.1301 22.1347 94.522 15.4628 93.4493C15.4855 93.2227 14.7458 93.4115 14.5194 89.4305C15.1987 88.3956 37.0182 96.3803 37.9163 97.234C38.5956 97.8761 37.4031 98.4275 37.6824 99.1225L37.6748 99.1225Z" fill="#164275"/>
<path class="people" d="M40.9806 98.1783C40.7542 98.0725 39.3051 98.3595 40.0372 95.8138C40.7013 96.6221 42.2108 96.7203 40.9806 98.1783Z" fill="#356896"/>
<path class="people" d="M54.2187 43.3046C52.4526 41.0005 47.6374 41.9901 47.8412 36.6796C56.7094 49.0835 54.2942 24.0565 43.5844 27.6901C42.9882 27.894 33.9766 34.5795 33.4256 35.2594C29.6142 29.2915 49.0714 27.7505 45.7128 19.1765H46.1883C50.2639 20.8762 53.9621 15.9886 58.951 26.0357C56.4754 34.7306 58.2943 23.8525 52.0979 20.5967C39.2975 24.7515 52.6489 25.8393 55.1697 30.2962C59.3887 37.7522 54.415 42.6323 54.2263 43.3046H54.2187Z" fill="#241C1F"/>
<path class="people" d="M66.9814 39.5199C66.9663 39.9958 67.004 40.4642 66.9814 40.9401C58.0981 38.1299 56.249 46.3338 65.0946 45.669C64.9059 45.9108 64.2266 47.0515 64.1511 47.0892C63.8115 47.2554 63.5624 47.4972 63.2077 47.5651C60.2038 48.1393 57.132 43.8636 60.8454 52.2941C60.317 53.2157 59.2076 55.346 58.9585 55.6028C55.8792 58.7151 55.5924 57.159 52.8149 58.4432C51.7055 57.091 50.2262 54.8776 48.5582 55.1345C50.1205 54.0315 51.4262 52.5585 52.3394 50.8739C57.449 54.6359 56.2037 47.8749 56.5962 46.855C56.649 46.7115 58.8151 45.6766 58.9585 44.9665C58.9811 44.8381 57.9019 43.1233 58.0151 42.602C58.8453 38.757 63.9398 38.485 66.9965 39.5275L66.9814 39.5199Z" fill="#841619"/>
<path class="people" d="M66.9814 40.9326C66.8833 43.2366 66.3927 43.9618 65.0945 45.6615C56.249 46.3263 58.1056 38.1224 66.9814 40.9326Z" fill="#BF2A28"/>
<path class="people" d="M52.7998 58.4432C52.0602 58.7831 50.4601 60.4375 49.962 61.2836C49.6827 61.0645 46.226 60.2184 44.2939 57.023C45.4638 56.751 47.5846 55.8068 48.5506 55.1344C50.2111 54.8776 51.6904 57.091 52.8074 58.4432H52.7998Z" fill="#841619"/>
<path class="people" d="M28.2255 55.1269C28.3462 56.3733 28.0217 58.1788 28.2255 58.9115C26.5349 59.7954 23.9461 59.9616 23.0253 60.3317C23.297 54.7416 22.6781 51.9692 28.2255 55.1269Z" fill="#D63531"/>
<path class="people" d="M39.0937 13.9716C35.8936 15.271 31.7275 16.1548 31.0558 20.3549L40.0372 15.3843C40.324 15.5882 44.6184 16.3739 45.7053 19.1689C49.0639 27.7505 29.6067 29.284 33.4181 35.2518C33.3879 35.2896 33.4181 35.4784 32.9426 36.1961C30.9954 33.9072 29.0406 42.5416 28.6859 44.2413C26.8141 45.9259 24.5801 47.8749 22.0668 45.8957L31.5161 31.233C18.6629 28.2113 21.5309 45.0798 11.9004 48.9702C9.90038 48.736 18.9799 25.0385 20.6479 22.7118C23.0027 19.4258 36.0446 13.0727 30.8067 13.0123C14.2779 19.5693 14.7458 36.0148 7.40973 49.4386C7.16822 48.2072 5.26627 46.6435 5.52288 43.9996C5.56817 43.4859 8.27768 36.3169 8.82864 34.3C11.9231 32.8118 14.1496 30.0696 8.82864 31.9355C10.6929 25.6504 16.1194 15.6411 22.3008 12.5363C28.9727 9.18228 32.1501 12.4684 32.7011 12.5363C33.169 12.5968 35.5465 11.5316 36.0068 11.5921C37.8484 11.8414 38.339 13.5033 39.0786 13.9565L39.0937 13.9716Z" fill="#BF2A28"/>
<path class="people" d="M40.0372 15.3918L31.0558 20.3625C31.7199 16.1624 35.8861 15.271 39.0937 13.9792C39.1692 14.0245 39.9466 15.3389 40.0372 15.3994V15.3918Z" fill="#841619"/>
<path class="people" d="M8.84374 34.3151C9.01733 33.6805 8.66261 32.555 8.84374 31.9506C14.1647 30.0847 11.9382 32.8269 8.84374 34.3151Z" fill="#841619"/>
<path class="people" d="M35.5465 20.5967C34.6408 31.0139 32.0143 29.3897 23.0178 30.2963C31.9463 27.0933 34.9049 20.1132 35.5465 20.5967Z" fill="#841619"/>
<path class="people" d="M27.984 21.065L28.2179 22.7194C13.1231 38.5228 14.6628 34.5795 27.984 21.065Z" fill="#841619"/>
<path class="people" d="M41.6901 19.1765L42.875 19.4107C36.6559 30.8704 31.4482 28.0451 41.6901 19.1765Z" fill="#841619"/>
<path class="people" d="M28.6934 44.2489C28.6632 44.4075 29.0029 44.9061 28.6934 47.5576C25.7575 49.2875 22.4517 52.3243 27.75 52.7624C27.75 52.8833 28.0368 53.2534 28.2255 55.1269C22.6781 51.9692 23.297 54.7416 23.0253 60.3317C21.946 60.7623 13.9986 64.2977 13.576 64.5923C7.66634 58.5112 8.44373 54.583 7.43237 49.4537C14.7685 36.0299 14.3005 19.5844 30.8293 13.0274C36.0672 13.0878 23.0253 19.4409 20.6705 22.7269C19.0025 25.0536 9.92302 48.7512 11.9231 48.9853C21.5536 45.0949 18.6856 28.2264 31.5388 31.2481L22.0894 45.9108C24.6027 47.89 26.8368 45.941 28.7085 44.2564L28.6934 44.2489Z" fill="#841619"/>
<path class="people" d="M26.565 32.8949L27.2745 34.0809C21.6064 50.3073 14.942 46.6964 24.4367 48.2752C18.912 53.1326 23.3574 57.5593 17.1081 57.0305C20.5573 40.57 13.1835 56.7435 11.674 50.1713C22.2555 45.2611 19.2592 36.7173 26.565 32.9025V32.8949Z" fill="#BF2A28"/>
<path class="people" d="M27.75 52.7624C22.4593 52.3243 25.7575 49.2951 28.6934 47.5576C28.2104 51.6973 27.7424 52.498 27.75 52.7624Z" fill="#BF2A28"/>
<path class="people" d="M11.9155 54.6585C17.5685 56.5244 13.508 60.3166 11.2061 55.8445L11.9155 54.6585Z" fill="#A51E1E"/>
<path class="people" d="M16.6402 50.8739C17.6667 51.3574 15.0703 55.9503 14.5118 53.0042L16.6402 50.8739Z" fill="#BF2A28"/>
<path class="people" d="M69.8192 33.8392C69.7287 35.7051 68.5739 37.994 67.4569 39.5124C67.3361 39.4519 67.1323 39.5653 66.9814 39.5124C63.9247 38.4699 58.8302 38.7418 58 42.5869C57.8868 43.1082 58.9736 44.8305 58.9434 44.9514C58.8 45.6615 56.6339 46.704 56.5811 46.8399C56.1886 47.8673 57.4415 54.6208 52.3243 50.8588C55.0339 45.8503 53.9848 44.1204 54.2112 43.2895C54.3999 42.6171 59.3736 37.7371 55.1546 30.2811C52.6338 25.8242 39.2824 24.7364 52.0828 20.5816C58.2792 23.845 56.4603 34.7155 58.9359 26.0206C53.947 15.9735 50.2488 20.8611 46.1732 19.1614C59.0038 11.7507 61.4567 19.1765 63.4266 21.0499C63.5473 21.1632 64.9889 20.6571 66.4984 22.2359C67.6003 23.3917 69.8872 32.1697 69.8041 33.8241L69.8192 33.8392Z" fill="#BF2A28"/>
<path class="people" d="M60.1284 29.5786C69.3588 41.9297 66.5436 36.7098 62.9662 36.2036C60.8454 35.9015 56.4603 40.0789 59.4189 35.9695C60.2718 34.791 62.136 34.8439 62.2567 34.5493C62.3699 34.2773 58.7321 32.0942 60.1284 29.5786Z" fill="#841619"/>
<path class="people" d="M60.5963 26.2699C63.0869 25.4389 65.0568 30.6664 64.3775 30.9988C63.6907 31.3387 59.6755 26.7911 60.5963 26.2699Z" fill="#841619"/>
<path class="people" d="M63.2002 47.5576C62.7473 49.3479 61.7284 50.7303 60.8378 52.2865C57.1245 43.8485 60.1963 48.1317 63.2002 47.5576Z" fill="#BF2A28"/>
<path class="people" d="M76.9062 103.859C77.4195 104.063 77.6912 104.818 77.8497 105.279C78.4912 107.138 77.1251 111.141 75.4873 112.373C74.3326 113.241 72.6042 113.408 71.2306 113.793C69.6683 105.732 70.2494 107.931 75.0118 104.335C75.1326 104.244 76.8308 103.927 76.8987 103.859H76.9062Z" fill="#895A3F"/>
<path class="people" d="M48.0751 99.5984C48.528 99.6287 49.3431 99.6664 49.4941 99.5984C53.1093 103.655 48.377 103.867 45.7128 107.644C45.3581 107.576 45.0864 107.334 44.7694 107.168L42.8825 102.197C41.4334 101.177 42.1655 103.549 41.9391 103.851C40.1504 106.216 35.9842 108.278 34.8521 104.327C33.6898 100.271 34.437 101.268 39.1088 99.5984C39.29 99.5305 42.6939 98.6768 42.8901 98.6542C46.6638 98.2387 46.8676 99.5305 48.0902 99.5984H48.0751Z" fill="#9B5F38"/>
<path class="people" d="M44.7618 107.168C42.6033 106.072 43.6675 104.403 41.924 103.859C42.158 103.557 41.4183 101.177 42.8674 102.205L44.7543 107.175L44.7618 107.168Z" fill="#4E362D"/>
<path class="people" d="M32.9501 36.2036C30.1878 40.434 31.818 45.2536 32.4747 49.922C32.4898 50.0051 31.7954 50.2544 31.9992 51.5764C32.0822 52.0977 34.6936 54.9078 34.3615 58.9115C34.2709 60.0069 33.1917 61.6235 32.9426 62.6962C31.101 62.3638 28.7312 60.7623 28.2179 58.9115C28.0141 58.1788 28.3387 56.3733 28.2179 55.1269C28.0368 53.2534 27.75 52.8833 27.7424 52.7624C27.7424 52.498 28.2028 51.7048 28.6859 47.5576C28.9953 44.9061 28.6557 44.4075 28.6859 44.2489C29.033 42.5567 30.9878 33.9223 32.9426 36.2036H32.9501Z" fill="#894B35"/>
<path class="people" d="M42.875 57.4914C42.9656 57.6349 42.7844 58.2241 42.875 58.4356L34.3691 58.9115C34.6936 54.9154 32.0897 52.1052 32.0067 51.5764C31.8029 50.2469 32.4898 50.0051 32.4822 49.922C35.388 55.7161 41.5315 55.4139 42.8825 57.4914H42.875Z" fill="#733B23"/>
<path class="people" d="M42.875 58.4432C45.0788 63.4969 40.324 64.0257 32.9501 62.7038C33.1992 61.6311 34.2785 60.0145 34.3691 58.9191L42.875 58.4432Z" fill="#9B5F38"/>
<path class="people" d="M54.2187 43.3046C53.9848 44.1355 55.0339 45.8654 52.3319 50.8739C51.4186 52.5585 50.113 54.0315 48.5506 55.1344C47.5921 55.8143 45.4638 56.7586 44.2939 57.023C43.6977 57.159 42.8674 56.7057 42.875 57.4989C41.524 55.4215 35.3804 55.7237 32.4747 49.9296C31.818 45.2611 30.1802 40.4415 32.9501 36.2112C33.4256 35.486 33.3879 35.3047 33.4256 35.2669C33.9766 34.587 42.9882 27.9016 43.5844 27.6976C54.2867 24.064 56.7094 49.0835 47.8412 36.6871C47.6449 41.9977 52.4526 41.0081 54.2187 43.3121L54.2187 43.3046Z" fill="#9B5F38"/>
<path class="people" d="M46.8902 48.9778C48.679 49.1062 49.396 49.0458 47.8336 50.8663C38.7164 53.125 42.6033 48.668 46.8902 48.9778Z" fill="#5E2D13"/>
<path class="people" d="M178.057 40.4642C180.064 45.6539 181.257 47.0741 181.362 53.2383C181.491 60.1278 179.604 67.5611 179 74.5261C178.977 74.8207 178.623 76.0294 178.057 75.9463C173.702 67.8406 170.811 62.8926 162.456 58.9191C162.411 58.8964 162.615 58.2694 161.513 58.4432C161.754 56.7813 160.894 55.9352 161.513 55.1344C175.506 53.8578 169.671 21.8658 158.916 23.437C146.599 27.3879 148.486 42.806 147.807 47.5651C146.856 54.2053 145.029 56.9701 144.969 57.4989C135.157 57.582 128.455 64.8945 122.281 71.6932C125.195 65.038 124.417 61.4195 126.538 55.3686C127.972 51.2743 136.568 37.9033 136.938 35.9695C137.074 35.2594 135.097 28.385 139.776 22.251C145.905 14.2134 154.539 17.6581 156.086 17.7563C156.509 17.7865 157.46 15.0821 164.124 18.7006C169.754 21.76 175.762 34.5039 178.064 40.4642H178.057Z" fill="#0A2B48"/>
<path class="people" d="M180.419 74.0501C180.079 74.4203 179.725 75.5837 179.475 74.5261L180.419 74.0501Z" fill="#0A2B48"/>
<path class="people" d="M174.743 179.076C174.215 186.91 164.079 233.859 162.924 236.556C162.486 237.576 161.905 238.497 160.562 238.21C158.396 237.455 156.124 236.994 153.943 236.322C154.728 217.784 160.147 199.608 157.724 180.972C162.705 180.73 169.868 180.02 174.736 179.084L174.743 179.076Z" fill="#FAB4A4"/>
<path class="people" d="M157.731 180.965C160.154 199.601 154.735 217.776 153.95 236.314C153.037 236.027 152.101 235.43 151.112 235.37C150.561 231.17 149.882 227.34 149.693 223.072C149.21 211.922 149.482 211.348 150.637 200.84C151.346 194.366 152.599 187.952 152.999 181.441C154.365 181.425 156.229 181.04 157.724 180.965H157.731Z" fill="#E38987"/>
<path class="people" d="M153.007 181.441C152.607 187.952 151.354 194.366 150.644 200.84C148.795 200.666 150.75 203.189 148.282 202.728C149.127 195.642 150.426 188.625 150.169 181.441C151.029 181.456 152.124 181.448 153.007 181.441Z" fill="#625554"/>
<path class="people" d="M150.169 181.441C150.418 188.625 149.12 195.642 148.282 202.728C148.063 204.572 148.063 206.596 147.807 208.402C147.082 208.152 146.546 209.127 146.388 209.588C143.059 219.317 139.625 229.1 137.406 239.155C136.176 238.913 134.47 237.266 133.15 236.79C132.153 229.553 131.814 222.301 131.263 215.027C131.044 212.164 130.968 209.361 130.787 206.513C130.266 198.158 129.881 189.796 129.368 181.441C129.308 180.519 129.074 179.937 128.893 179.076C131.278 179.552 147.973 181.395 150.161 181.441L150.169 181.441Z" fill="#E38987"/>
<path class="people" d="M147.807 208.409C147.188 212.775 146.742 217.346 145.92 221.652C144.833 227.325 142.44 232.9 141.663 238.679C141.316 238.581 139.482 239.563 137.406 239.155C139.625 229.1 143.059 219.317 146.388 209.588C146.546 209.134 147.082 208.152 147.807 208.402V208.409Z" fill="#FAB4A4"/>
<path class="people" d="M137.406 239.155C139.482 239.57 141.308 238.581 141.663 238.679C145.648 239.804 149.369 243.211 152.063 246.248C152.637 246.898 154.312 247.955 154.426 248.137C158.63 254.822 136.78 250.992 134.576 246.951C134.138 246.142 133.897 242.834 133.633 241.512C133.233 239.532 133.391 238.429 133.157 236.783C134.478 237.259 136.184 238.905 137.414 239.147L137.406 239.155Z" fill="#2B2B2B"/>
<path class="people" d="M153.95 236.314C156.131 236.994 158.403 237.447 160.569 238.203C160.531 241.021 162.335 241.202 163.407 241.987C163.543 242.086 163.777 242.909 166.245 243.876C170.502 247.51 176.072 251.362 166.245 250.501C162.924 248.295 156.871 248.091 152.539 245.772C150.607 241.814 151.241 236.276 151.12 235.362C152.109 235.43 153.044 236.027 153.958 236.307L153.95 236.314Z" fill="#2B2B2B"/>
<path class="people" d="M166.237 250.509C162.056 250.138 158.516 248.582 154.418 248.144C154.305 247.963 152.629 246.898 152.056 246.256L152.531 245.78C156.863 248.099 162.916 248.303 166.237 250.509Z" fill="#356896"/>
<path class="people" d="M137.406 125.615C138.176 126.091 143.844 136.455 148.041 140.278C156.546 135.768 155.407 133.086 149.693 126.559C158.222 125.434 166.985 126.982 175.219 123.719C175.423 124.777 178.758 133.811 179.943 141.456C181.098 148.905 182.245 165.569 181.83 172.919C181.785 173.713 182.728 174.211 181.355 177.18C179.143 177.641 176.94 178.646 174.736 179.069C169.868 180.005 162.698 180.715 157.724 180.957C156.229 181.033 154.365 181.418 152.999 181.433C152.124 181.441 151.022 181.448 150.161 181.433C147.973 181.388 131.27 179.545 128.893 179.069C126.032 178.494 120.213 176.092 116.606 175.518C118.5 158.015 121.504 140.723 123.693 123.243C126.213 123.205 136.327 124.95 137.399 125.608L137.406 125.615Z" fill="#CC4C4C"/>
<path class="people" d="M174.743 118.998C174.887 118.952 175.075 119.043 175.219 118.998C175.392 120.44 174.977 122.457 175.219 123.727C166.992 126.982 158.222 125.441 149.693 126.567C147.973 124.603 144.871 123.047 143.55 120.894C151.218 122.321 167.143 121.249 174.743 119.005V118.998Z" fill="#2B2B2B"/>
<path class="people" d="M128.425 118.046C131.859 119.829 141.723 123.115 137.406 125.615C136.335 124.958 126.221 123.213 123.7 123.251C123.972 121.067 124.84 118.884 124.644 116.626C125.428 117.056 127.58 117.608 128.425 118.046Z" fill="#0C0B10"/>
<path class="people" d="M184.2 91.0849C184.132 87.8819 180.162 80.0708 178.532 76.8905C179.158 76.5733 179.808 76.2786 180.419 75.9463C186.344 80.7961 184.985 83.3116 184.2 91.0849Z" fill="#1A2733"/>
<path class="people" d="M144.969 57.4914C144.954 57.6424 144.969 57.8162 144.969 57.9673C139.353 63.3912 162.705 70.5979 162.456 58.9115C170.804 62.8926 173.702 67.8406 178.057 75.9387C178.223 76.2409 178.374 76.5808 178.532 76.883C180.162 80.0633 184.132 87.8743 184.2 91.0773C184.208 91.5381 184.268 92.0518 184.2 92.4975C180.925 85.9556 179.611 78.5827 174.751 72.8641C172.547 82.2993 172.69 92.1122 173.332 101.721C173.347 101.925 174.23 102.318 174.275 102.907C174.283 103.028 174.094 103.376 174.275 105.272C174.706 109.797 175.679 114.442 174.751 118.99C167.143 121.234 151.226 122.314 143.557 120.879C142.75 120.728 141.414 121.067 140.961 120.879C140.153 120.554 137.753 117.464 136.946 116.618C138.953 112.939 134.697 103.791 134.108 99.3492C133.595 95.5041 133.18 90.3823 133.633 86.575C134.402 80.0557 142.697 65.5517 135.519 76.1653C132.516 80.6072 130.236 86.4541 127.957 91.3039C127.67 91.9158 126.115 92.845 126.07 92.9583C122.711 91.8403 119.459 90.3974 116.145 89.1736C115.436 88.9092 114.553 88.6675 113.783 88.6977C113.994 87.9423 113.398 87.7912 113.307 87.2775C113.873 86.5826 121.927 72.494 122.289 71.663C128.463 64.8643 135.165 57.5593 144.976 57.4687L144.969 57.4914Z" fill="#FFD047"/>
<path class="people" d="M184.2 92.5051C184.125 93.0036 181.838 97.1207 181.362 97.7099C180.336 98.9941 176.102 102.28 174.275 102.915C174.222 102.326 173.347 101.94 173.332 101.729C172.69 92.1198 172.547 82.3069 174.751 72.8717C179.611 78.5902 180.925 85.9631 184.2 92.5051Z" fill="#FEB943"/>
<path class="people" d="M136.931 116.626C134.931 114.548 124.221 99.6815 124.168 97.9365C124.161 97.6721 125.798 93.5626 126.055 92.9659C126.108 92.8526 127.655 91.9234 127.942 91.3115C130.221 86.4617 132.5 80.6147 135.504 76.1729C142.674 65.5592 134.387 80.0633 133.617 86.5826C133.165 90.3899 133.58 95.5041 134.093 99.3567C134.682 103.799 138.938 112.947 136.931 116.626Z" fill="#FFD047"/>
<path class="people" d="M186.562 110.952L181.362 97.7099C181.838 97.1207 184.125 93.0036 184.2 92.5051C184.268 92.0594 184.208 91.5457 184.2 91.0849C184.985 83.3116 186.344 80.7961 180.419 75.9463C181.347 75.4401 182.11 74.8282 183.257 74.5261C183.332 74.7376 185.211 74.7602 186.095 78.0765C186.132 78.2125 185.136 78.9906 185.619 80.9169C188.163 91.0546 192.578 101.147 186.562 110.96V110.952Z" fill="#9B5F38"/>
<path class="people" d="M186.562 110.952C186.283 111.413 185.951 111.972 185.619 112.373C179.272 114.662 177.74 109.185 174.275 105.279C174.094 103.383 174.283 103.028 174.275 102.915C176.109 102.28 180.336 98.9941 181.362 97.7099L186.562 110.952Z" fill="#894B35"/>
<path class="people" d="M126.062 92.9734C125.798 93.5702 124.161 97.6721 124.176 97.9441C124.228 99.6891 134.938 114.556 136.938 116.633C137.746 117.472 140.153 120.561 140.954 120.894C141.414 121.083 142.75 120.743 143.55 120.894C144.878 123.054 147.973 124.61 149.693 126.567C155.407 133.094 156.539 135.775 148.041 140.285C143.844 136.463 138.176 126.091 137.406 125.623C141.723 123.122 131.859 119.836 128.425 118.053C128.372 117.653 128.523 117.124 128.425 116.867C127.7 115.017 106.93 104.108 116.138 89.1888C119.451 90.4125 122.704 91.8554 126.062 92.9734Z" fill="#9B5F38"/>
<path class="people" d="M116.138 89.1888C106.93 104.108 127.7 115.009 128.425 116.867C128.523 117.124 128.372 117.645 128.425 118.053C127.58 117.615 125.428 117.064 124.644 116.633C116.153 111.942 109.488 106.443 110.937 95.5796C111.247 93.2454 113.489 89.7251 113.775 88.7204C114.553 88.6826 115.428 88.9319 116.138 89.1963V89.1888Z" fill="#894B35"/>
<path class="people" d="M161.513 55.1269C160.894 55.9352 161.754 56.7813 161.513 58.4356C160.494 65.5139 145.157 62.0314 144.969 57.9597C144.969 57.8086 144.954 57.6349 144.969 57.4838C145.029 56.955 146.856 54.1902 147.807 47.55C148.969 46.3338 148.901 49.2875 150.169 50.6246C152.66 53.2535 157.89 55.4517 161.513 55.1193V55.1269Z" fill="#E38987"/>
<path class="people" d="M144.969 57.9673C145.15 62.039 160.494 65.5215 161.513 58.4432C162.622 58.2694 162.411 58.8964 162.456 58.9191C162.705 70.6054 139.353 63.3987 144.969 57.9748V57.9673Z" fill="#FAB4A4"/>
<path class="people" d="M161.513 55.1269C157.89 55.4593 152.66 53.261 150.169 50.6321C148.901 49.2951 148.969 46.3414 147.807 47.5576C148.486 42.7985 146.599 27.3803 158.916 23.4295C169.671 21.8582 175.506 53.8502 161.513 55.1269Z" fill="#FAB4A4"/>
<path class="people" d="M166.471 44.7172L167.181 45.4273C164.486 51.6973 161.475 50.6321 166.471 44.7172Z" fill="#CB897A"/>
<path class="people" d="M154.66 34.3151C158.856 33.4917 153.127 37.7145 153.007 35.9695L154.66 34.3151Z" fill="#274147"/>
<path class="people" d="M163.641 37.6238C164.298 36.7098 164.215 41.197 163.166 40.9326L163.641 37.6238Z" fill="#7B5141"/>
</svg>
