<svg width="389" height="282" viewBox="0 0 389 282" fill="none" xmlns="http://www.w3.org/2000/svg">
<path d="M232.868 71.6399C231.712 74.5789 230.318 77.4534 229.068 80.3565C227.02 85.1306 226.151 85.2023 226.029 85.4747C225.928 85.6969 226.474 86.4854 224.886 90.2129C224.01 92.2702 222.623 94.1555 221.847 96.2773C221.495 94.8508 222.063 85.5965 219.57 77.138C219.419 76.6147 218.284 75.1237 218.047 74.4857C216.991 71.5539 219.117 70.027 214.627 68.9876C201.487 65.9555 170.278 69.3174 155.557 69.3676C153.1 71.1955 151.57 74.7151 151.189 77.7043C150.909 79.9193 151.124 88.6072 151.189 92.1053C150.398 92.2702 150.6 91.8186 150.046 91.3455C148.135 87.9047 146.526 84.1414 145.484 80.3565C145.398 80.034 145.571 79.5465 145.484 79.2168C144.105 74.0054 143.408 68.5289 142.065 63.296C147.604 62.7799 177.333 62.2065 185.559 62.1563C202.026 62.0631 218.808 61.4251 234.945 65.1885C235.562 65.9411 233.256 70.6077 232.854 71.6327L232.868 71.6399Z" fill="#0D0A08"/>
<path d="M243.128 68.2278L235.721 65.1956C235.131 67.26 234.427 71.2313 232.868 71.6399C233.271 70.622 235.577 65.9482 234.959 65.1956C218.823 61.4322 202.04 62.0702 185.573 62.1634C177.34 62.2136 147.618 62.787 142.079 63.3032C141.432 63.3605 139.679 64.1132 138.659 64.063H138.278C147.122 61.0667 165.615 62.106 176.076 61.7906C179.761 61.6831 186.285 61.4681 185.76 60.6509C193.505 60.443 201.171 59.2531 208.93 59.1312C212.558 59.1671 216.991 60.0774 218.047 59.5111L218.808 58.9448C214.404 41.2679 201.379 30.2646 191.838 15.5481C202.493 19.4906 208.47 19.6484 218.808 29.7628C234.183 44.7947 235.34 61.8122 236.281 63.4967C237.186 65.1096 241.892 64.7798 243.12 68.2349L243.128 68.2278Z" fill="#EEC60F"/>
<path d="M174.366 29.562C170.278 40.6728 168.661 48.1637 169.049 60.2637C161.958 60.4716 154.867 61.2745 147.776 61.0236C146.253 51.6905 149.63 42.4577 153.473 34.1139C155.808 31.1892 157.985 27.9635 160.313 25.0173C169.624 17.7559 173.892 17.9351 179.309 15.1609C181.586 15.1394 177.074 22.2002 174.373 29.562H174.366Z" fill="url(#paint0_linear_44_518)"/>
<path d="M189.942 14.4012C193.218 19.7845 197.097 24.9744 200.955 29.942C200.201 32.6373 195.89 38.1497 193.548 40.5582C192.851 36.5941 186.974 16.0929 185.76 14.5947C182.764 10.8815 176.212 27.5263 175.12 30.1355L174.359 29.5692C177.067 22.2074 181.572 15.1467 179.294 15.1682C181.78 13.8922 182.182 11.9568 183.662 11.7561C185.947 11.4407 187.901 13.6198 189.927 14.4083L189.942 14.4012Z" fill="#EEC60F"/>
<path d="M145.499 79.2168C145.585 79.5466 145.412 80.0268 145.499 80.3566C140.829 78.3351 126.805 74.7438 130.684 67.468C133.156 66.3784 135.728 64.9233 138.286 64.0559H138.666C138.846 68.2063 142.733 76.5789 145.506 79.2168H145.499Z" fill="#AE5909"/>
<path d="M243.128 68.2277C245.211 74.0986 233.558 78.421 229.075 80.3565C230.318 77.4533 231.719 74.5788 232.876 71.6398C234.435 71.2312 235.139 67.26 235.728 65.1956L243.135 68.2277H243.128Z" fill="#CF920D"/>
<path d="M169.049 60.2637C174.517 60.0989 180.221 60.787 185.767 60.6436C186.292 61.4608 179.768 61.6687 176.083 61.7834C165.615 62.0988 147.122 61.0666 138.286 64.0557C135.728 64.9231 133.163 66.3711 130.684 67.4678C132.488 64.0773 138.02 65.0235 139.421 61.7834C139.572 63.683 141.554 61.8121 141.698 61.7834C143.645 61.4537 145.872 61.7906 147.776 61.0236C154.867 61.2745 161.958 60.4788 169.049 60.2637Z" fill="#E6AB0E"/>
<path d="M153.473 34.114C148.947 39.7841 144.838 43.741 142.833 51.5472C141.691 52.2927 140.685 55.2174 140.175 56.8517C141.059 44.8592 151.045 32.2359 160.306 25.0103C157.978 27.9564 155.801 31.1821 153.466 34.1068L153.473 34.114Z" fill="#E6AB0E"/>
<path d="M191.845 15.541C201.386 30.2646 214.412 41.2607 218.816 58.9377L218.054 59.504C214.067 44.2643 209.605 40.9238 202.478 31.4545C201.573 30.2503 201.027 30.0209 200.955 29.9349C197.097 24.9673 193.218 19.7774 189.941 14.394C190.401 14.5732 190.875 15.1754 191.838 15.5338L191.845 15.541Z" fill="#E6AB0E"/>
<path d="M142.833 51.5471C142.014 54.7513 141.878 58.4788 141.691 61.7834C141.54 61.8121 139.564 63.683 139.414 61.7834C139.514 61.554 139.586 58.7297 140.175 56.8588C140.685 55.2244 141.691 52.2998 142.833 51.5543V51.5471Z" fill="#AE5909"/>
<path d="M145.499 79.2166C142.726 76.5787 138.839 68.2062 138.659 64.0557C139.679 64.1059 141.432 63.3604 142.079 63.2959C143.422 68.5287 144.112 73.9981 145.499 79.2166Z" fill="#7E341D"/>
<path d="M200.962 29.942C201.027 30.028 201.58 30.2574 202.485 31.4617C200.998 31.2538 195.05 39.7984 194.884 40.3719C194.626 41.2679 194.726 58.185 195.265 58.9449C195.66 59.504 207.198 59.1169 208.944 59.1312C201.185 59.2531 193.519 60.443 185.775 60.6509C180.235 60.8015 174.531 60.1133 169.056 60.271C168.668 48.171 170.292 40.6801 174.373 29.5693L175.134 30.1356C176.226 27.5263 182.779 10.8816 185.775 14.5947C186.981 16.0929 192.866 36.5942 193.562 40.5582C195.905 38.1497 200.215 32.6445 200.97 29.942H200.962Z" fill="#E6AB0E"/>
<path d="M202.478 31.4617C209.605 40.931 214.067 44.2714 218.054 59.5112C216.998 60.0775 212.565 59.1743 208.937 59.1313C207.198 59.1098 195.66 59.4969 195.258 58.9449C194.719 58.1851 194.619 41.2679 194.877 40.3719C195.042 39.7984 200.984 31.2539 202.478 31.4617Z" fill="#EDC766"/>
<path d="M147.776 61.0237C145.872 61.7907 143.645 61.4467 141.698 61.7836C141.885 58.479 142.014 54.7515 142.841 51.5473C144.845 43.741 148.947 39.7841 153.481 34.114C149.637 42.4579 146.26 51.6906 147.783 61.0237H147.776Z" fill="#F0D39A"/>
<path d="M149.673 163.365C148.523 168.627 146.454 173.709 145.111 178.906C143.624 181.006 144.845 176.741 144.162 176.254C136.403 179.673 128.141 181.838 120.418 185.35C120.267 185.422 118.04 185.644 117.946 185.73C115.971 187.651 120.138 220.202 120.037 225.342H121.179C122.307 218.21 123.45 210.898 125.361 203.923C126.029 201.472 128.112 194.626 128.4 196.533C128.615 197.938 125.023 219.163 124.98 224.769C124.937 230.704 126.647 244.632 127.257 252.058C127.732 257.743 128.091 263.449 128.781 269.112C115.489 269.155 102.184 269.241 88.8927 268.925C91.1342 245.241 89.956 210.102 104.849 190.468C114.426 177.845 136.116 171.114 149.673 163.365Z" fill="#1B3E40"/>
<path d="M158.035 176.626C157.911 180.101 157.784 183.575 157.655 187.049C157.54 187.271 154.688 185.529 153.093 184.963C151.799 184.504 151.713 182.103 146.634 188.182C151.376 193.637 152.568 195.967 160.313 194.06C160.586 194.59 162.023 200.698 161.836 196.712H162.598C163.553 210.131 163.941 226.733 164.121 240.302C162.641 240.417 164.25 238.023 161.843 238.976L162.224 269.112C161.484 269.198 160.694 269.083 159.947 269.112C153.15 269.398 146.239 269.076 139.435 269.112C135.62 265.542 146.691 263.549 149.314 260.961C137.114 263.628 134.614 260.804 127.279 252.051C126.661 244.625 124.958 230.697 125.002 224.761L157.669 224.575C156.814 215.529 154.522 208.325 150.449 200.318C148.825 197.121 143.106 189.959 143.228 186.863C145.218 187.58 144.917 187.257 145.887 185.537C146.433 184.569 151.376 170.376 151.965 168.29C154.034 170.541 156.922 173.809 158.043 176.626H158.035Z" fill="#1B3E40"/>
<path d="M139.421 269.112C135.879 269.126 132.33 269.097 128.781 269.112C128.091 263.442 127.732 257.743 127.257 252.058C134.593 260.804 137.093 263.635 149.292 260.969C146.67 263.556 135.599 265.549 139.413 269.119L139.421 269.112Z" fill="#1B3E40"/>
<path d="M161.448 182.691C161.484 183.064 161.412 183.451 161.448 183.831C161.858 188.124 162.281 192.411 162.59 196.719H161.829C161.678 193.587 159.135 179.408 158.028 176.634C156.908 173.817 154.019 170.548 151.95 168.297C152.489 166.397 153.696 161.15 152.712 161.853C155.298 160.132 156.318 158.283 158.028 155.788C159.228 160.326 158.668 165.007 159.171 169.623C159.609 173.652 161.053 178.669 161.448 182.698V182.691Z" fill="#1B3E40"/>
<path d="M152.712 161.846C153.696 161.143 152.489 166.39 151.95 168.29C151.361 170.376 146.418 184.569 145.872 185.537C144.902 187.257 145.204 187.58 143.214 186.863C143.3 184.719 144.522 181.207 145.111 178.906C146.447 173.709 148.523 168.627 149.673 163.365C150.786 162.727 152.568 161.946 152.712 161.846Z" fill="#0F2727"/>
<path d="M145.118 178.906C144.529 181.207 143.307 184.727 143.221 186.863C143.099 189.959 148.811 197.121 150.442 200.318C154.508 208.325 156.807 215.536 157.662 224.575L124.994 224.761C125.037 219.156 128.63 197.931 128.414 196.526C128.127 194.619 126.043 201.472 125.375 203.916C124.843 204.619 122.07 203.916 121.955 203.73C121.488 202.934 121.697 187.952 120.432 185.35C128.155 181.838 136.418 179.673 144.177 176.254C144.859 176.741 143.638 181.006 145.125 178.906H145.118Z" fill="#215559"/>
<path d="M120.425 185.343C121.69 187.952 121.474 202.934 121.948 203.723C122.056 203.909 124.836 204.619 125.368 203.909C123.464 210.877 122.315 218.188 121.187 225.328H120.044C120.145 220.188 115.985 187.644 117.954 185.716C118.04 185.63 120.274 185.408 120.425 185.336V185.343Z" fill="#1B3E40"/>
<path d="M153.093 184.97C155.305 187.716 158.732 190.956 160.313 194.067C152.568 195.974 151.383 193.651 146.634 188.189C151.713 182.103 151.792 184.504 153.093 184.97Z" fill="#0F2727"/>
<path d="M164.114 240.31C164.236 249.714 163.711 259.155 164.494 268.545C163.898 269.441 163.029 269.019 162.217 269.112L161.836 238.976C164.243 238.023 162.641 240.417 164.114 240.302V240.31Z" fill="#0F2727"/>
<path d="M161.829 196.719C162.023 200.705 160.579 194.597 160.306 194.067C158.732 190.956 155.298 187.716 153.085 184.97C154.68 185.537 157.525 187.279 157.648 187.056C157.772 183.582 157.899 180.108 158.028 176.634C159.128 179.415 161.678 193.587 161.829 196.719Z" fill="#3E7A7E"/>
<path d="M214.634 225.141C214.38 239.798 214.127 254.455 213.873 269.112C209.957 269.112 205.97 268.724 202.097 268.732C202.457 253.85 202.672 238.854 203.621 224.009C206.02 224.295 213.341 223.206 214.634 225.148V225.141Z" fill="#366C70"/>
<path d="M203.621 224.009C202.672 238.861 202.464 253.858 202.097 268.732C199.525 268.732 200.689 268.352 200.574 268.352C200.273 259.614 200.969 250.919 201.336 242.202C201.58 236.267 201.681 230.31 202.097 224.389C203.154 209.357 204.468 197.135 207.414 182.318C207.443 182.175 208.391 180.447 208.556 179.666C209.921 172.956 212.033 166.433 212.738 159.58C214.843 176.139 206.063 196.949 204.763 205.257C204.001 210.117 203.973 218.518 203.621 224.016V224.009Z" fill="#0F2727"/>
<path d="M264.02 220.977C264.753 220.79 265.371 221.801 265.543 222.303C267.274 227.392 269.408 260.072 270.859 269.112C264.659 269.19 258.445 269.09 252.245 269.112C251.519 264.517 251.066 245.872 249.967 243.528C249.809 243.184 249.163 243.377 248.825 243.342C249.263 235.722 249.191 223.442 251.483 216.618C252.676 213.077 252.525 219.292 253.955 224.389C254.278 224.439 254.091 223.27 254.141 223.249C255.291 222.898 256.555 223.894 257.561 223.249C264.164 211.873 265.644 200.597 262.123 222.303C262.31 222.661 263.028 221.751 264.02 220.977Z" fill="#1B3E40"/>
<path d="M271.995 269.112C271.614 269.112 271.233 269.112 270.852 269.112C269.401 260.072 267.267 227.392 265.536 222.303C265.363 221.801 264.753 220.79 264.013 220.977C266.19 219.292 267.849 216.052 269.71 217.758C272.828 219.772 276.715 261.879 276.93 268.173C274.717 268.825 271.75 267.621 271.995 269.119V269.112Z" fill="#366C70"/>
<path d="M252.245 269.112C250.599 269.112 248.839 268.724 247.309 268.732C248.336 260.302 248.336 251.8 248.832 243.334C249.17 243.37 249.809 243.184 249.974 243.521C251.074 245.865 251.526 264.517 252.252 269.104L252.245 269.112Z" fill="#0F2727"/>
<path d="M271.995 269.112C271.757 267.613 274.717 268.81 276.93 268.165C276.722 261.879 272.828 219.772 269.71 217.751C267.849 216.045 266.19 219.285 264.013 220.969C263.014 221.744 262.296 222.654 262.116 222.296C265.644 200.59 264.156 211.866 257.554 223.242L256.986 200.124C256.038 207.832 255.087 215.538 254.134 223.242C254.077 223.256 254.271 224.424 253.947 224.381C252.518 219.285 252.669 213.07 251.476 216.611C249.184 223.435 249.256 235.715 248.818 243.334C248.329 251.8 248.322 260.302 247.295 268.732C236.396 268.76 225.519 268.724 214.627 268.732C213.772 263.37 215.841 226.955 214.627 225.141C213.327 223.199 206.006 224.288 203.613 224.002C203.965 218.503 203.987 210.102 204.756 205.242C206.056 196.934 214.835 176.125 212.73 159.566C212.982 157.129 213.046 154.806 213.111 152.362C214.85 154.749 216.164 156.656 218.622 158.426C223.665 162.068 250.765 173.924 261.548 182.304C284.345 200.017 282.656 242.41 286.054 268.531C285.659 269.506 273.834 269.083 272.002 269.097L271.995 269.112Z" fill="#3E7A7E"/>
<path d="M214.634 268.731C214.275 268.731 214.232 269.111 213.873 269.111C214.127 254.455 214.38 239.798 214.634 225.141C215.848 226.955 213.779 263.37 214.634 268.731Z" fill="#1B3E40"/>
<path d="M257.561 223.249C256.555 223.894 255.291 222.898 254.141 223.249C255.09 215.541 256.04 207.835 256.994 200.131L257.561 223.249Z" fill="#1B3E40"/>
<path d="M219.002 226.661C220.231 233.313 217.537 248.08 219.951 253.004C223.73 260.717 236.346 262.552 241.418 255.09C235.728 265.556 219.9 259.026 218.435 250.732C217.666 246.381 219.283 232.582 219.002 226.661Z" fill="#215559"/>
<path d="M218.816 190.275C214.958 186.045 213.621 191.687 209.318 192.547C211.408 186.676 216.05 181.429 220.712 188.569C220.748 189.092 219.556 189.608 218.816 190.275Z" fill="#101B18"/>
<path d="M218.816 190.275C216.876 192.017 209.109 198.11 209.318 192.547C213.621 191.687 214.958 186.045 218.816 190.275Z" fill="#1B3E40"/>
<path d="M221.474 200.511C221.194 203.221 221.855 210.683 221.474 211.88C219.8 217.163 218.643 207.378 220.145 200.131C221.682 199.938 221.409 200.525 221.474 200.511Z" fill="#1B3E40"/>
<path d="M221.474 211.88C221.855 210.683 221.194 203.221 221.474 200.511C229.319 199.092 238.034 200.783 245.98 200.131C246.171 204.236 246.361 208.341 246.547 212.446C241.842 212.367 223.96 213.177 221.668 212.633C221.388 212.568 221.474 212.131 221.481 211.873L221.474 211.88Z" fill="#F0F7DC"/>
<path d="M223.184 201.644H245.218L245.786 210.927L222.803 211.493C222.307 211.349 221.869 201.751 223.184 201.636V201.644Z" fill="#EEC60F"/>
<path d="M164.487 147.444C164.444 153.473 163.603 153.014 169.423 161.279C169.272 163.974 167.627 159.989 165.241 159.193C163.589 157.078 161.197 154.82 161.06 151.989C160.931 149.2 161.815 148.226 164.48 147.437L164.487 147.444Z" fill="#1A110E"/>
<path d="M172.088 183.45C175.63 187.787 179.201 192.067 182.348 196.719C182.879 220.819 180.717 245.004 181.967 269.111C174.632 269.169 167.268 269.291 159.932 269.111C160.679 269.083 161.477 269.197 162.21 269.111C163.022 269.018 163.891 269.441 164.487 268.545C163.704 259.155 164.229 249.714 164.106 240.309C163.934 226.74 163.546 210.138 162.583 196.719C162.274 192.411 161.85 188.131 161.441 183.83C165.4 183.658 162.741 188.791 167.706 183.071C169.768 182.777 174.912 197.393 174.165 200.124C175.321 194.382 172.455 189.092 172.074 183.443L172.088 183.45Z" fill="#BAC1C8"/>
<path d="M207.414 182.311C204.468 197.128 203.146 209.357 202.098 224.381C201.178 224.496 199.72 225.177 199.439 226.088C199.231 226.776 198.807 239.815 199.059 240.489C199.116 240.632 200.747 241.119 201.336 242.195C200.97 250.911 200.28 259.606 200.574 268.345C199.705 268.345 200.416 269.097 197.535 269.104C197.514 239.786 199.418 210.468 204.375 181.551C205.302 182.189 206.286 182.447 207.414 182.311Z" fill="#AEADB0"/>
<path d="M161.075 151.989C161.204 154.813 163.603 157.079 165.256 159.193C166.757 161.114 168.683 162.591 170.192 164.498C169.933 164.498 169.502 164.405 169.43 164.684C168.877 166.978 167.814 172.791 167.907 175.107C166.808 176.892 165.73 178.347 166.384 178.139C166.017 178.361 162.806 182.06 161.448 182.691C161.053 178.662 159.609 173.637 159.171 169.616C158.668 164.999 159.235 160.319 158.028 155.781C159.214 154.054 160.277 151.917 161.067 151.989H161.075Z" fill="#868793"/>
<path d="M213.118 152.369C213.054 154.806 212.989 157.129 212.738 159.573C212.041 166.426 209.929 172.949 208.556 179.659C204.619 175.143 201.659 169.845 199.059 164.498C200.926 162.634 202.924 161.057 204.756 159.193C207.809 156.082 210.539 153.638 211.595 148.957C212.695 150.218 212.982 152.19 213.118 152.369Z" fill="#BAC1C8"/>
<path d="M173.985 169.429C175.084 170.892 179.301 175.652 179.682 176.82C181.054 181.042 178.885 183.723 178.921 184.404C178.942 184.777 181.852 189.142 182.34 191.035C182.829 192.956 182.664 194.088 182.721 195.959C182.75 196.941 182.34 196.676 182.34 196.719C179.201 192.074 175.623 187.795 172.081 183.451C171.284 182.469 170.587 181.379 169.804 180.418C172.914 178.44 169.114 174.956 169.804 172.462C171.291 167.071 173.712 171.788 173.985 169.429Z" fill="#868793"/>
<path d="M169.811 180.418C170.601 181.379 171.291 182.468 172.088 183.45C172.469 189.099 175.336 194.389 174.179 200.131C174.926 197.4 169.782 182.777 167.72 183.078C162.749 188.798 165.414 183.665 161.455 183.838C161.419 183.465 161.491 183.07 161.455 182.698C162.813 182.074 166.032 178.375 166.391 178.146C168.575 176.798 167.835 178.003 169.811 180.418Z" fill="#AEADB0"/>
<path d="M199.059 164.498C201.659 169.852 204.619 175.142 208.556 179.658C208.398 180.447 207.443 182.167 207.414 182.311C206.286 182.447 205.302 182.189 204.375 181.551C203.096 180.669 198.117 173.372 197.535 171.695C197.205 170.727 197.313 167.917 196.393 166.77C198.994 164.024 198.929 164.619 199.051 164.498H199.059Z" fill="#787A88"/>
<path d="M197.543 171.702C195.502 174.49 192.88 178.289 189.568 179.659C189.942 178.153 190.473 174.161 190.71 173.594C191.371 172.024 195.028 168.232 196.408 166.77C197.327 167.917 197.212 170.734 197.55 171.695L197.543 171.702Z" fill="#BAC1C8"/>
<path d="M204.375 181.558C199.418 210.482 197.514 239.793 197.535 269.111C192.341 269.126 187.154 269.068 181.96 269.111C182.98 248.187 181.586 226.876 182.721 206.002C182.908 202.583 183.267 199.35 183.864 195.959C186.055 183.429 189.733 182.146 189.942 181.364C190.215 180.368 189.518 179.838 189.561 179.658C192.88 178.282 195.495 174.49 197.535 171.702C198.117 173.379 203.089 180.676 204.375 181.558Z" fill="#BAC1C8"/>
<path d="M183.864 195.959C183.267 199.35 182.908 202.582 182.721 206.002C181.586 226.876 182.987 248.187 181.96 269.111C180.71 245.004 182.872 220.819 182.34 196.719C182.34 196.676 182.75 196.941 182.721 195.959H183.864Z" fill="#5E6065"/>
<path d="M187.097 205.056C190.804 204.496 193.57 208.812 191.465 212.446C185.3 217.113 180.257 208.181 187.097 205.056Z" fill="#9A9D9B"/>
<path d="M191.845 243.714C192.269 249.442 183.102 249.886 183.109 244.094C187.908 245.592 186.385 238.818 191.845 243.714Z" fill="#9A9D9B"/>
<path d="M191.845 243.714C186.378 238.818 187.908 245.592 183.109 244.094C184.568 239.084 191.062 238.653 191.845 243.714Z" fill="#B1AEA6"/>
<path d="M170.192 164.498C171.485 166.132 172.735 167.759 173.992 169.422C173.719 171.78 171.305 167.064 169.811 172.454C168.934 173.107 168.467 174.211 167.914 175.107C167.821 172.791 168.884 166.978 169.437 164.684C169.502 164.404 169.94 164.49 170.199 164.498H170.192Z" fill="#9BA1AE"/>
<path d="M202.098 224.389C201.681 230.317 201.587 236.267 201.336 242.202C200.747 241.127 199.109 240.646 199.059 240.496C198.807 239.822 199.231 226.783 199.439 226.095C199.72 225.184 201.178 224.503 202.098 224.389Z" fill="#AEADB0"/>
<path d="M169.811 180.418C167.835 178.003 168.575 176.791 166.391 178.146C165.73 178.354 166.808 176.899 167.914 175.114C168.467 174.211 168.934 173.114 169.811 172.462C169.121 174.956 172.922 178.44 169.811 180.418Z" fill="#787A88"/>
<path d="M221.855 96.277C221.984 96.8003 222.738 97.5386 223.378 97.4168C222.35 98.9723 222.049 101.28 221.855 103.101C221.84 103.144 221.208 102.958 221.093 103.288C220.799 104.162 221.876 104.714 221.855 104.807C220.375 110.592 219.556 107.345 219.196 108.219C219.139 108.356 219.735 110.434 219.577 111.065C219.563 111.123 219.505 110.778 219.196 112.205C219.189 112.241 218.507 112.069 218.435 112.391C217.796 115.488 218.356 121.796 213.873 127.932C212.249 130.154 203.154 137.76 200.194 140.247C196.487 137.129 196.522 135.796 194.877 137.595C191.156 137.502 187.571 135.33 183.864 135.323C182.843 135.323 181.435 135.982 179.682 135.703C179.876 135.287 179.955 133.229 180.25 133.05C181.04 132.577 190.071 132.527 188.799 128.878C190.128 128.692 189.467 129.459 190.128 129.258C196.106 124.979 179.222 131.366 176.076 123.194C180.717 122.656 194.633 123.767 196.206 123.574C196.372 123.552 197.033 122.878 197.155 122.814C201.135 120.663 196.803 118.427 196.012 121.674C194.439 121 186.134 120.563 183.856 120.534C182.822 120.011 181.385 118.133 181.198 117.122C183.368 118.993 183.26 119.18 186.328 119.015C190.732 114.298 184.474 111.961 188.038 111.058C189.834 110.599 193.196 111.682 193.354 108.786C196.077 108.793 195.236 105.639 193.354 106.513C193.203 106.069 191.824 104.033 191.457 102.915C191.062 101.718 191.766 96.829 187.089 94.3846C182.434 94.9724 184.632 99.6676 184.999 102.721C183.971 102.635 183.828 103.022 183.102 101.961C183.397 91.7969 181.888 80.4423 182.34 79.4101C182.879 78.1986 191.436 77.9406 192.981 77.704C192.291 79.6968 197.047 79.704 200.955 80.3563C197.751 82.8867 193.814 85.6966 194.877 90.2127C195.797 94.1194 198.426 95.2663 196.774 90.7789C197.773 87.6607 198.161 97.3308 203.994 93.2448C205.029 94.1695 208.01 93.4957 208.556 92.1051C209.713 92.5352 212.271 92.9653 211.976 91.9187C210.59 90.5137 208.549 89.2593 206.66 88.7001C210.539 88.2055 196.508 84.2773 204.382 81.496C206.94 80.5928 211.768 82.3992 214.448 83.3885C215.985 82.1125 209.677 75.5105 198.685 76.1843C201.882 73.1307 210.819 71.4604 215.59 70.12L214.642 68.9802C219.132 70.0125 217.005 71.5465 218.061 74.4783C218.291 75.1163 219.426 76.6144 219.584 77.1306C222.077 85.5963 221.517 94.8434 221.862 96.2699L221.855 96.277Z" fill="#B67453"/>
<path d="M172.85 141.76C175.285 146.978 187.319 146.211 192.226 145.932C189.216 148.269 186.78 151.072 186.529 155.028C184.158 156.326 185.264 163.924 184.632 167.344C185.315 168.921 189.108 165.738 192.233 164.125C195.797 162.283 201.695 159.387 204.389 156.541C204.08 158.505 202.464 159.939 204.77 159.193C202.938 161.064 200.934 162.641 199.073 164.498C198.951 164.62 199.008 164.032 196.415 166.77C195.035 168.232 191.371 172.024 190.717 173.594C187.104 176.211 187.836 179.867 187.678 180.225C187.269 181.157 183.741 185.924 182.362 191.028C181.873 189.128 178.964 184.77 178.942 184.397C178.906 183.723 181.076 181.042 179.704 176.813C179.323 175.637 175.106 170.885 174.006 169.422C172.749 167.752 171.506 166.132 170.206 164.498C168.69 162.591 166.765 161.107 165.27 159.193C167.648 159.982 169.294 163.967 169.452 161.279C163.632 153.014 164.473 153.473 164.516 147.444C164.545 143.624 165.579 139.108 164.897 135.316C168.094 135.997 170.522 139.416 172.871 141.76H172.85Z" fill="#671F11"/>
<path d="M219.196 112.191C218.751 129.753 208.255 132.778 207.802 133.982C207.572 134.599 208.671 145.251 208.564 147.057C208.341 150.842 207.112 153.659 204.382 156.534C201.681 159.372 195.79 162.275 192.226 164.118C187.858 162.067 186.22 159.895 186.529 155.021C186.78 151.064 189.216 148.261 192.226 145.924C193.85 144.663 196.451 143.939 197.737 142.892C200.79 140.398 200.064 140.355 200.208 140.24C203.161 137.745 212.263 130.147 213.887 127.925C218.363 121.789 217.803 115.481 218.449 112.384C218.514 112.062 219.204 112.234 219.211 112.198L219.196 112.191Z" fill="#A66246"/>
<path d="M153.473 113.33C152.159 113.51 152.396 112.965 152.331 112.951C152.281 105.976 151.318 99.0871 151.189 92.1052C151.124 88.6071 150.909 79.9191 151.189 77.7041C151.447 77.7041 151.879 77.6109 151.95 77.8905C152.877 81.7614 152.41 104.628 153.473 113.33Z" fill="#C5A396"/>
<path d="M211.595 148.957C210.539 153.638 207.809 156.075 204.756 159.193C202.45 159.939 204.066 158.505 204.375 156.541C207.105 153.666 208.334 150.849 208.556 147.064C209.519 147.115 211.021 148.297 211.595 148.957Z" fill="#4A160E"/>
<path d="M204.375 81.489C204.763 80.5787 202.909 80.679 200.955 80.3493C197.047 79.697 192.291 79.6898 192.981 77.697C193.282 77.654 193.85 76.4784 198.678 76.1773C209.67 75.5035 215.978 82.0983 214.44 83.3815C211.761 82.3922 206.925 80.5858 204.375 81.489Z" fill="#0D0A08"/>
<path d="M193.361 106.506C194.374 109.56 193.074 107.668 192.794 107.646C188.145 107.295 188.9 109.051 186.529 104.428C189.934 102.607 186.515 102.843 185.006 102.721C184.639 99.6678 182.441 94.9654 187.096 94.3848C191.774 96.8291 191.069 101.711 191.465 102.915C191.831 104.04 193.218 106.069 193.361 106.513V106.506Z" fill="#D39574"/>
<path d="M189.561 108.779C188.921 110.219 187.132 109.89 188.038 111.051C184.474 111.954 190.732 114.298 186.328 119.008C183.26 119.173 183.375 118.979 181.198 117.115C180.379 112.692 183.282 111.424 183.476 110.671C183.626 110.098 182.879 109.331 182.714 108.779C182.822 108.7 182.879 108.893 183.095 108.399C185.178 108.857 187.441 108.829 189.554 108.779H189.561Z" fill="#A66246"/>
<path d="M204.375 81.489C196.501 84.2703 210.539 88.1914 206.652 88.6932C201.896 87.2882 199.174 87.9118 194.877 90.2128C193.821 85.6968 197.751 82.8868 200.955 80.3564C202.909 80.679 204.763 80.5787 204.375 81.4962V81.489Z" fill="#944C33"/>
<path d="M185.006 102.714C186.515 102.836 189.927 102.6 186.529 104.42C188.907 109.051 188.145 107.295 192.794 107.639C193.081 107.66 194.374 109.553 193.361 106.499C195.244 105.625 196.084 108.779 193.361 108.771C192.047 108.771 190.897 108.743 189.561 108.771C187.449 108.822 185.185 108.85 183.102 108.392C183.274 107.997 183.059 103.374 183.102 101.947C183.828 103.008 183.978 102.621 184.999 102.707L185.006 102.714Z" fill="#B67453"/>
<path d="M183.863 135.316C184.553 136.921 193.412 139.452 194.31 139.108C195.093 138.806 194.827 137.652 194.877 137.588C196.522 135.789 196.487 137.122 200.194 140.24C200.057 140.355 200.783 140.398 197.722 142.892C196.443 143.939 193.843 144.663 192.212 145.925C187.305 146.211 175.271 146.978 172.835 141.753C169.897 135.452 178.166 138.212 178.727 137.961C179.38 137.667 179.208 136.685 179.675 135.688C181.428 135.968 182.836 135.308 183.856 135.308L183.863 135.316Z" fill="#0D0A08"/>
<path d="M194.884 137.588C194.827 137.645 195.093 138.799 194.317 139.107C193.412 139.459 184.553 136.921 183.871 135.315C187.578 135.315 191.17 137.495 194.884 137.588Z" fill="#652E25"/>
<path d="M193.361 108.779C193.196 111.682 189.834 110.599 188.045 111.051C187.132 109.883 188.929 110.219 189.568 108.779C190.897 108.75 192.054 108.779 193.368 108.779H193.361Z" fill="#51200D"/>
<path d="M196.02 121.667C196.767 121.983 195.969 123.008 197.162 122.807C197.04 122.872 196.379 123.545 196.213 123.567C194.633 123.76 180.724 122.649 176.083 123.187C179.237 131.359 196.113 124.972 190.135 129.251C189.475 129.452 190.135 128.685 188.806 128.871C181.047 129.961 178.59 128.757 173.611 123.187C175.019 123.23 174.775 122.019 174.754 120.915C175.077 120.965 175.415 121.603 177.606 121.674C177.872 121.682 178.281 121.237 182.922 121.295C183.116 121.295 183.813 120.535 183.871 120.535C186.148 120.563 194.453 121.001 196.027 121.674L196.02 121.667Z" fill="#671F11"/>
<path d="M197.162 122.807C195.976 123.008 196.767 121.99 196.02 121.667C196.81 118.42 201.142 120.649 197.162 122.807Z" fill="#250D07"/>
<path d="M190.703 173.594C190.466 174.161 189.942 178.153 189.561 179.659C189.518 179.838 190.215 180.368 189.942 181.365C189.733 182.139 186.055 183.429 183.863 195.959H182.721C182.664 194.088 182.836 192.956 182.34 191.035C183.72 185.931 187.247 181.164 187.657 180.232C187.815 179.866 187.082 176.218 190.696 173.601L190.703 173.594Z" fill="#4A160E"/>
<path d="M186.522 155.021C186.213 159.896 187.851 162.068 192.219 164.118C189.094 165.731 185.308 168.913 184.618 167.336C185.25 163.917 184.144 156.312 186.515 155.021H186.522Z" fill="#944C33"/>
<path d="M150.054 91.3454C150.607 91.8185 150.399 92.2629 151.196 92.1052C151.325 99.0871 152.288 105.976 152.338 112.951C148.76 112.327 148.344 111.718 145.88 108.972C135.505 97.3954 140.944 83.532 150.061 91.3454H150.054Z" fill="#671F11"/>
<path d="M146.828 95.5173C152.647 97.8614 150.743 107.13 148.725 100.442C140.182 101.596 151.218 108.521 148.725 109.538C143.573 106.542 142.338 99.3309 146.828 95.5173Z" fill="#250D07"/>
<path d="M219.57 111.058C219.728 110.434 219.139 108.349 219.189 108.212C219.548 107.338 220.368 110.585 221.848 104.8C221.869 104.714 220.791 104.155 221.086 103.281C221.201 102.944 221.826 103.137 221.848 103.094C223.945 97.4599 228.436 97.0513 223.938 108.019C234.823 102.944 227.365 91.3669 223.371 97.4026C222.738 97.5244 221.977 96.7861 221.848 96.2628C222.623 94.141 224.01 92.2557 224.887 90.1985C224.348 91.8973 228.709 88.5282 231.345 90.7647C238.206 96.5782 224.915 118.764 219.57 111.044V111.058Z" fill="#B67453"/>
<path d="M221.855 103.094C222.041 101.266 222.343 98.9653 223.378 97.4097C227.372 91.3669 234.83 102.951 223.945 108.026C228.443 97.0585 223.953 97.4671 221.855 103.101V103.094Z" fill="#671F11"/>
<path d="M228.5 90.9655C230.9 90.772 231.496 93.5963 232.488 95.3238C230.569 104.026 231.453 97.8399 230.591 95.3238C229.707 92.7576 226.733 92.521 228.5 90.9655Z" fill="#671F11"/>
<path d="M206.66 88.6932C208.556 89.2523 210.589 90.5067 211.976 91.9117C212.271 92.9583 209.713 92.5354 208.556 92.0981C207.709 91.7827 206.114 90.048 205.704 90.2057C205.424 90.3132 205.05 92.4995 203.994 93.2379C198.16 97.3238 197.773 87.6609 196.774 90.772C198.426 95.2593 195.79 94.1124 194.877 90.2057C199.173 87.9047 201.896 87.281 206.652 88.686L206.66 88.6932Z" fill="#0D0A08"/>
<path d="M208.556 92.1053C208.01 93.496 205.029 94.1626 203.994 93.2451C205.05 92.5067 205.424 90.3132 205.704 90.2129C206.114 90.0624 207.701 91.7899 208.556 92.1053Z" fill="#E6D6D0"/>
<path d="M204.188 90.213C205.223 89.9334 204.806 93.3025 204.001 90.3993L204.188 90.213Z" fill="#AEADB0"/>
<path d="M214.634 68.9803L215.583 70.1201C210.812 71.4605 201.875 73.1379 198.678 76.1844C193.85 76.4783 193.282 77.6539 192.98 77.7041C191.436 77.9407 182.879 78.1987 182.34 79.4102C181.881 80.4424 183.396 91.797 183.102 101.962C183.059 103.388 183.274 108.004 183.102 108.406C182.894 108.9 182.829 108.707 182.721 108.786C182.003 109.302 178.224 108.155 175.882 110.492C177.247 112.406 179.984 109.273 183.483 110.678C183.289 111.431 180.386 112.692 181.205 117.122C181.392 118.133 182.829 120.004 183.863 120.535C183.806 120.535 183.102 121.294 182.915 121.294C178.274 121.237 177.864 121.681 177.599 121.674C175.407 121.603 175.07 120.965 174.746 120.914C174.208 120.836 171.075 120.054 170.946 120.348C172.433 122.979 173.475 123.043 173.604 123.194C178.583 128.764 181.04 129.968 188.799 128.878C190.071 132.52 181.04 132.57 180.25 133.05C179.948 133.23 179.876 135.287 179.682 135.703C179.215 136.699 179.388 137.681 178.734 137.975C178.181 138.226 169.911 135.466 172.843 141.767C170.493 139.43 168.058 136.004 164.868 135.323C164.329 132.326 157.231 130.068 154.609 120.728C154.027 118.664 153.739 115.545 153.466 113.338C152.41 104.635 152.87 81.7685 151.943 77.8977C151.878 77.6181 151.44 77.7041 151.182 77.7113C151.562 74.7221 153.093 71.2025 155.55 69.3746C170.278 69.3244 201.487 65.9696 214.62 68.9947L214.634 68.9803Z" fill="#7E341D"/>
<path d="M166.01 95.1374C168.194 94.3131 167.957 94.779 169.43 94.3776C169.969 94.2342 170.809 93.7396 171.327 93.6178C171.499 93.5748 172.167 94.3274 174.746 92.478C174.811 92.5855 175.953 92.2558 176.27 92.6644C177.951 94.8937 160.327 135.939 161.075 97.2162C162.885 96.908 164.387 95.7396 166.01 95.1303V95.1374Z" fill="#944C33"/>
<path d="M166.01 81.1162C165.22 81.2667 164.818 81.4244 164.487 81.4961C158.747 82.6932 155.593 84.7576 155.37 84.3419C157.26 72.9587 175.695 76.7937 176.262 77.8976C177.275 81.4674 172.354 79.9047 166.003 81.1162H166.01Z" fill="#0D0A08"/>
<path d="M166.01 81.1161C165.981 82.9081 167.691 81.7182 170.378 83.3884C175.142 86.3489 173.892 88.908 173.985 89.2664C174.086 89.6463 174.976 89.2664 175.127 89.6463C175.415 90.3846 174.359 90.1696 174.366 90.2126C170.479 88.7288 167.591 88.0908 163.352 89.0728C163.73 86.5448 164.111 84.0168 164.494 81.4888C164.818 81.4243 165.227 81.2594 166.017 81.1089L166.01 81.1161Z" fill="#944C33"/>
<path d="M182.721 108.779C182.886 109.331 183.626 110.105 183.483 110.671C179.991 109.259 177.247 112.399 175.882 110.485C178.224 108.148 181.996 109.295 182.721 108.779Z" fill="#4A160E"/>
<path d="M174.746 120.914C174.775 122.018 175.019 123.23 173.604 123.187C173.475 123.043 172.433 122.972 170.946 120.341C171.075 120.047 174.208 120.828 174.746 120.907V120.914Z" fill="#250D07"/>
<path d="M174.366 90.2126C174.473 90.7287 174.473 92.0047 174.746 92.485C172.167 94.3272 171.506 93.5817 171.327 93.6247C172.117 89.2091 170.479 89.4743 169.43 94.3846C167.957 94.786 168.194 94.32 166.01 95.1444C164.415 93.6892 164.035 94.8003 163.92 94.7645C163.589 94.6713 163.769 94.0118 163.733 94.0046C162.188 90.2054 159.616 92.2842 162.21 94.0046C161.973 93.9688 157.899 94.8075 158.028 92.6785C159.192 90.9438 161.247 89.5675 163.345 89.08C167.584 88.098 170.472 88.7288 174.359 90.2198L174.366 90.2126Z" fill="#0D0A08"/>
<path d="M163.733 93.9974C163.237 93.9329 162.698 94.0762 162.21 93.9974C159.609 92.277 162.181 90.1982 163.733 93.9974Z" fill="#E6D6D0"/>
<path d="M171.327 93.6175C170.809 93.7393 169.962 94.2339 169.43 94.3773C170.486 89.467 172.117 89.209 171.327 93.6175Z" fill="#E6D6D0"/>
<defs>
<linearGradient id="paint0_linear_44_518" x1="173.626" y1="37.7769" x2="148.719" y2="40.5921" gradientUnits="userSpaceOnUse">
<stop stop-color="#DCA109"/>
<stop offset="1" stop-color="#B66C04"/>
</linearGradient>
</defs>
</svg>
